<svg width="170" height="121" viewBox="0 0 170 121" fill="none" xmlns="http://www.w3.org/2000/svg">
<path fill-rule="evenodd" clip-rule="evenodd" d="M100.667 0.582473C99.1784 1.47472 98.3668 2.79763 98.3644 4.33761C98.3602 6.69696 99.9184 8.46505 102.439 8.96102C103.713 9.21185 103.35 8.3543 106.491 18.5413L108.295 24.3889L106.958 25.4862L105.622 26.5832L96.4383 23.9399L87.2543 21.2966V20.0049C87.2543 15.1011 83.191 11.3481 77.8823 11.3481C70.7262 11.3481 66.3727 17.992 69.7897 23.6986C70.7262 25.2625 73.3403 27.4326 74.2876 27.4326C74.9329 27.4326 74.903 27.7187 73.7169 32.9031C73.1442 35.4063 72.6756 37.5423 72.6756 37.6492C72.6756 37.7565 72.1365 37.8442 71.4777 37.8442C67.9934 37.8442 64.1408 39.2754 61.7325 41.4643C55.3314 47.2822 57.1451 56.9742 65.3192 60.6319C67.4616 61.5904 67.8782 61.6648 71.1063 61.6648C74.2525 61.6648 74.7833 61.5762 76.6629 60.7373C82.3076 58.2183 85.2765 52.4385 83.7461 46.9478C83.4871 46.019 83.2723 45.1526 83.2688 45.0232C83.2653 44.8939 88.464 42.0988 94.8218 38.8125L106.381 32.8368L107.613 33.5969C109.234 34.5967 110.942 34.8608 112.697 34.3828C115.664 33.5748 117.533 30.6772 116.763 28.0778C116.088 25.8001 113.775 23.962 111.583 23.962C110.67 23.962 110.492 23.8118 110.179 22.7789C109.982 22.1283 108.906 18.6562 107.787 15.0632L105.755 8.53036L106.75 7.66366C109.153 5.57092 108.579 1.83282 105.641 0.452169C104.253 -0.200295 101.869 -0.137825 100.667 0.582473ZM85.5417 24.4015C84.1689 26.4207 80.957 28.0636 78.3828 28.0636C77.0496 28.0636 77.1933 27.7604 75.9905 33.1116C75.5028 35.2807 75.0318 37.3426 74.9443 37.6937C74.8152 38.2096 75.1297 38.4762 76.5827 39.0819C77.5716 39.4943 79.1819 40.5203 80.1611 41.3621C81.14 42.2036 82.031 42.8923 82.141 42.8923C82.3056 42.8923 104.864 31.3177 105.252 31.0344C105.318 30.9855 105.271 30.4037 105.145 29.7411L104.917 28.5368L95.8253 25.9304C90.8248 24.4968 86.6292 23.3256 86.5018 23.3275C86.3741 23.3294 85.9419 23.8128 85.5417 24.4015Z" fill="url(#paint0_linear)"/>
<path d="M17.1998 111.582C16.7089 112.416 16.099 113.011 15.5436 113.813C15.3998 114.021 14.9981 114.341 14.8246 114.341C14.7155 114.341 14.6064 114.251 14.6064 114.102C14.6064 113.218 14.9188 112.416 15.1915 111.591C15.3353 111.177 15.4643 110.771 15.4643 110.334C15.4643 109.847 15.0527 109.45 14.4725 109.45C13.6097 109.45 12.9799 110.41 12.727 111.005C12.5188 111.492 12.37 112.137 12.0973 112.524C12.0427 112.583 11.9535 112.632 11.889 112.691C11.5617 112.335 11.7898 111.253 11.3336 111.253C10.8526 111.253 10.5154 112.218 10.3617 112.218C10.1534 112.218 10.1733 111.253 10.1881 111.285C10.1336 110.888 9.71706 110.501 9.26085 110.433C9.2063 110.433 9.0625 110.523 9.0625 110.573C9.0625 110.748 9.10713 110.92 9.11705 111.086C9.12696 111.195 9.18151 112.285 9.24597 112.524C9.33523 112.862 9.6278 113.484 10.0989 113.484C10.2526 113.484 10.3369 113.367 10.4262 113.088C10.5551 112.623 10.7634 111.938 11.2245 111.663C11.2543 111.731 11.3435 111.799 11.3534 111.871C11.408 112.308 11.3534 113.029 11.8444 113.029C12.4543 113.029 12.7617 111.83 12.9998 111.276C13.2526 110.69 13.6543 110.135 14.3337 109.829C14.3535 109.815 14.3882 109.806 14.408 109.806C14.4824 109.806 14.537 109.856 14.537 109.915C14.537 110.185 14.3733 110.532 14.3089 110.807C14.1254 111.582 13.8973 112.357 13.7535 113.137C13.7336 113.227 13.7336 113.318 13.7336 113.408C13.7336 113.994 14.2345 114.697 14.8444 114.697C15.3899 114.697 15.7816 114.093 16.1089 113.583C16.461 113.061 17.2246 111.947 17.2643 111.929C17.3535 111.681 17.4081 111.573 17.2246 111.573C17.2097 111.573 17.2097 111.573 17.1998 111.582ZM23.7255 111.69C23.7007 111.65 23.671 111.632 23.6363 111.632C23.3983 111.632 22.4611 112.988 21.9255 113.696C21.7172 113.971 21.261 114.449 20.8891 114.449C20.5916 114.449 20.4974 113.953 20.4974 113.683C20.4974 113.07 20.7999 112.443 20.9883 111.83C21.0181 111.722 21.0429 111.623 21.0429 111.533C21.0429 111.253 20.6709 110.92 20.1899 110.92C20.0164 110.92 19.8428 110.978 19.6891 111.104C19.1337 111.582 18.6081 112.078 18.0428 112.542C17.8792 112.673 17.7453 112.889 17.4973 112.889C17.299 112.889 17.2444 112.344 17.2444 112.227C17.2444 111.415 18.3701 109.906 19.0544 109.906C19.4461 109.906 19.5999 110.212 19.5999 110.473C19.5999 110.532 19.5899 110.6 19.5899 110.658C19.5899 110.69 19.6792 110.807 19.7437 110.807C19.9073 110.807 19.9618 110.523 19.9618 110.383C19.9618 110.005 19.5007 109.599 19.0792 109.599C18.1519 109.599 17.2544 110.897 16.7982 111.763C16.6891 111.97 16.6444 112.227 16.6444 112.457C16.6444 112.921 16.8825 113.286 17.4973 113.286C18.0974 113.286 18.6081 112.533 19.1089 112.06C19.1883 111.988 19.461 111.731 19.5899 111.731C19.6098 111.731 19.7089 111.781 19.7089 111.799C19.5999 112.276 19.4808 112.79 19.4808 113.277C19.4808 114.061 19.8726 115.003 20.78 115.003C21.2164 115.003 21.6528 114.746 21.9701 114.341C22.5007 113.656 23.0363 112.961 23.552 112.258C23.6363 112.137 23.7702 112.019 23.7801 111.862C23.7801 111.812 23.7553 111.749 23.7255 111.69ZM28.5157 111.632C28.3719 111.862 27.0628 113.327 26.8991 113.457C26.7801 113.556 26.6611 113.597 26.552 113.597C26.2 113.597 25.7983 112.862 25.5008 112.443C25.4462 112.366 25.4165 112.317 25.4165 112.276C25.4165 112.227 25.471 112.195 25.59 112.168C26.2545 111.961 26.9438 111.303 26.9438 110.681C26.9438 110.41 26.7256 110.194 26.4181 110.194C25.8628 110.194 24.9801 111.267 24.6826 111.898C24.5983 112.078 24.5735 112.276 24.4099 112.416C24.1817 112.11 23.9636 111.343 23.9636 111.195C23.9636 111.037 24.028 110.888 24.1371 110.73C24.6181 110.005 24.8809 109.252 25.2082 108.459C25.3371 108.121 25.3917 107.796 25.3917 107.467C25.3917 106.606 25.1338 106.187 24.4644 106.187C24.3355 106.187 24.1718 106.21 24.0082 106.237C23.6363 106.318 23.1156 106.989 23.0462 107.427C22.9619 107.963 22.9073 108.499 22.9073 109.036C22.9073 109.568 22.9718 110.095 23.1156 110.631C23.1801 110.897 23.5371 112.119 23.6809 112.366C23.9536 112.853 24.1371 113.327 24.509 113.327C24.5884 113.327 24.7173 113.349 24.7173 113.151C24.7173 113.07 24.6826 113.002 24.6826 112.93C24.6826 112.781 24.7619 112.506 24.9008 112.506C25.0247 112.506 25.3718 112.921 25.5157 113.079C25.8281 113.426 26.1256 113.813 26.5719 113.813C27.0082 113.813 27.2066 113.507 27.4992 113.187C27.8364 112.772 28.6446 111.848 28.6446 111.681C28.6446 111.591 28.6248 111.564 28.6 111.564C28.5802 111.564 28.5355 111.614 28.5157 111.632ZM23.8247 110.51C23.7007 110.302 23.6363 110.014 23.6363 109.766C23.6363 109.103 23.6462 108.441 23.671 107.765C23.671 107.219 24.0974 106.435 24.5437 106.435C24.9355 106.435 25.1884 107.03 25.1884 107.427C25.1884 108.4 24.4793 109.432 23.9636 110.383C23.9437 110.433 23.8793 110.46 23.8247 110.51ZM25.0644 111.979C25.0545 111.979 25.0545 111.947 25.0545 111.92C25.0545 111.433 26.2 110.374 26.5173 110.374C26.671 110.374 26.7008 110.721 26.7008 110.681C26.7008 111.352 25.8727 111.88 25.352 112.078C25.3371 112.078 25.3272 112.087 25.3272 112.087C25.2528 112.087 25.119 111.997 25.0644 111.979ZM31.2728 111.731C31.243 111.713 31.2083 111.681 31.1736 111.681C31.0248 111.681 30.4794 112.227 30.1719 112.475C29.8248 112.754 29.2893 113.218 28.9917 113.218C28.719 113.218 28.6248 112.93 28.6248 112.466C28.6248 111.929 28.7636 111.352 28.7636 110.821C28.7636 110.609 28.6347 110.253 28.2529 110.253C27.8711 110.253 27.8909 111.799 27.8909 111.871C27.8909 112.565 28.2727 113.516 28.9372 113.516C29.6066 113.516 30.5736 112.425 31.2827 111.781C31.2827 111.763 31.2827 111.731 31.2728 111.731ZM28.5702 109.491C28.5802 109.518 28.6446 109.531 28.6992 109.549C28.8826 109.459 28.962 109.383 28.962 109.243C28.962 109.112 28.8529 108.837 28.6545 108.837C28.5008 108.837 28.4711 108.923 28.4711 108.995C28.4711 109.112 28.5256 109.333 28.5702 109.491ZM37.7092 112.037C37.2183 112.763 36.6976 113.475 36.172 114.178C36.053 114.341 35.7257 114.566 35.5918 114.566C35.2348 114.566 35.2348 113.953 35.2348 113.633C35.2348 113.128 35.3885 112.493 35.4629 112.01C35.4828 111.65 35.5175 111.325 35.5175 110.996C35.5175 110.334 35.3637 109.716 34.7191 109.716C34.1637 109.716 33.4645 110.325 33.1273 110.83C32.7802 111.343 32.4629 111.898 32.0711 112.385C32.0364 112.344 32.0067 112.317 31.9918 112.267C31.9075 111.74 31.7984 111.217 31.7736 110.69C31.7538 110.144 31.4463 109.788 30.9455 109.549C30.8909 109.518 30.8066 109.5 30.7372 109.5C30.5984 109.5 30.519 109.617 30.519 109.739C30.519 109.757 30.519 109.779 30.5339 109.788C30.7273 110.275 30.7372 110.78 30.7918 111.285C30.8463 112.087 31.243 113.565 31.7736 113.565C32.1158 113.565 32.2248 113.286 32.2645 113.079C32.4083 112.326 32.9092 111.713 33.3703 111.104C33.653 110.739 34.2431 110.063 34.7191 110.063C34.8728 110.063 34.9274 110.194 34.9274 110.334C34.9274 110.51 34.853 110.672 34.8183 110.839C34.6646 111.573 34.4712 112.294 34.4712 113.038C34.4712 113.854 34.5009 115.035 35.6266 115.035C36.0728 115.035 36.2067 114.764 36.5985 114.169C36.9902 113.583 37.3621 112.961 37.7638 112.376C37.8084 112.317 38.1159 111.862 38.1456 111.83C38.1258 111.79 38.1159 111.781 38.0811 111.781C38.0613 111.781 38.0365 111.79 38.0167 111.79C38.0068 111.79 37.982 111.781 37.972 111.749C37.9621 111.799 37.734 111.997 37.7092 112.037ZM43.625 111.74C42.9358 112.227 42.4101 112.294 41.701 112.772C41.6366 112.813 41.5721 112.831 41.5176 112.831C41.4184 112.831 41.344 112.763 41.344 112.641C41.344 112.556 41.3539 112.475 41.3539 112.394C41.3539 111.772 40.9622 111.235 40.863 110.631C40.7886 110.203 40.4713 110.027 39.9704 110.027C39.2365 110.027 38.6464 110.334 38.2547 110.857C38.0712 111.104 37.5704 111.911 37.5704 112.466C37.5704 112.804 37.8183 113.07 38.101 113.07C38.4729 113.07 39.4547 112.344 40.0894 111.938C40.1341 111.92 40.1638 111.911 40.1985 111.911C40.4365 111.911 40.3275 112.831 40.4266 113.2C40.4465 113.299 40.4713 113.399 40.4713 113.484C40.4713 113.822 40.2828 114.111 40.0349 114.39C39.5539 114.913 39.1076 115.458 38.6911 116.026C37.982 116.995 37.382 117.897 37.382 119.208C37.382 119.903 37.9274 120.466 38.6365 120.466C38.7456 120.466 38.8547 120.457 38.9638 120.416C40.9175 119.781 41.4432 118.762 41.4432 116.175C41.4432 115.44 41.4184 114.706 41.4184 113.98C41.4184 113.061 42.2167 112.772 43.1341 112.317C43.7738 111.997 43.754 111.641 43.625 111.74ZM40.3275 118.393C40.0894 119.087 39.5985 119.632 38.825 119.912C38.6712 119.97 38.5274 120.002 38.4084 120.002C37.972 120.002 37.7737 119.664 37.7737 119.06C37.7737 118.861 37.8084 118.672 37.8729 118.492C38.4183 117.077 39.2365 115.778 40.2283 114.575C40.2729 114.525 40.382 114.516 40.4713 114.489C40.5357 114.674 40.5456 114.836 40.5456 115.044C40.5456 115.269 40.5456 115.508 40.5456 115.747C40.5903 116.044 40.6101 116.351 40.6101 116.648C40.6101 117.234 40.5258 117.82 40.3275 118.393ZM40.4812 111.285C39.7374 111.74 38.9737 112.186 38.2101 112.623C38.2001 112.632 38.1803 112.632 38.1704 112.632C38.101 112.632 37.9919 112.592 37.9919 112.466C38.2101 111.564 38.8646 110.253 40.0894 110.253C40.4068 110.253 40.6349 110.482 40.6349 110.956C40.6349 111.077 40.5704 111.235 40.4812 111.285ZM51.8367 111.74C51.8367 111.731 51.6979 111.632 51.6533 111.632C51.683 111.632 49.8086 113.994 49.3177 113.994C48.9706 113.994 48.7623 113.498 48.7623 112.988C48.7623 112.763 48.8069 112.524 48.9011 112.276C49.0797 111.83 49.1888 111.343 49.3276 110.879C49.3524 110.83 49.3524 110.78 49.3524 110.73C49.3524 110.203 48.5342 110.113 48.0978 110.045C47.2895 109.928 47.8251 109.59 47.4433 108.964C47.3441 108.806 47.1805 108.725 47.0267 108.725C46.6995 108.725 46.4267 109.121 46.4267 109.419C46.4267 109.68 46.5904 109.928 46.9176 110.104C47.1557 110.244 47.235 110.284 47.235 110.401C47.235 110.64 46.8433 111.452 46.4366 111.947C46.3821 112.046 46.5705 112.11 46.6251 112.069C47.1705 111.582 47.3887 110.293 47.7805 110.302C48.1623 110.311 48.4648 110.473 48.4648 110.622C48.4648 110.672 48.4549 110.739 48.435 110.821C48.2367 111.393 47.8648 112.195 47.8648 112.705C47.8648 113.367 48.4995 114.327 49.3821 114.327C49.6102 114.327 49.7888 114.251 49.9524 114.061C50.3888 113.534 51.8367 111.92 51.8367 111.74ZM47.3193 109.748C47.2895 109.806 47.2449 109.906 47.2102 109.906C46.8978 109.879 46.8185 109.649 46.8185 109.482C46.8185 109.32 46.9276 109.036 47.0813 109.036C47.2449 109.036 47.3193 109.509 47.3441 109.599C47.3342 109.707 47.3342 109.73 47.3193 109.748ZM51.4251 111.393C51.3012 112.128 51.8615 113.565 52.9177 113.484C53.974 113.385 54.1822 111.97 54.1525 111.253C54.1178 110.532 53.964 109.342 52.9624 109.252C51.7276 109.153 51.5094 110.609 51.4251 111.393ZM52.0252 111.343C52.0797 110.789 52.1194 109.558 53.007 109.518C53.845 109.491 53.964 110.897 53.9343 111.424C53.8797 111.871 53.7161 113.286 52.7095 113.169C51.9805 113.079 52.045 111.821 52.0252 111.343ZM55.5459 110.162C55.5161 110.343 55.4715 110.658 55.4715 111.068C55.4715 111.483 55.5161 111.979 55.655 112.484C55.8186 112.912 56.0715 113.308 56.5823 113.498C56.7161 113.547 56.8252 113.574 56.9195 113.574C57.0732 113.574 57.217 113.507 57.3558 113.367C57.7178 112.979 57.9459 112.533 58.0005 112.019C58.0798 111.533 57.8815 111.104 57.5988 110.699C57.3558 110.352 56.9641 110.212 56.5178 110.176C56.2897 110.162 56.2649 110.144 56.3194 109.937C56.5079 109.094 56.7013 108.251 56.8897 107.4C56.9542 107.179 56.974 107.003 56.974 106.854C56.974 106.467 56.7905 106.309 56.498 106.309C56.3641 106.318 56.2451 106.494 56.1558 107.012C56.126 107.3 56.0715 107.607 56.007 107.882C55.8632 108.639 55.6798 109.392 55.5459 110.162ZM56.1459 111.415C56.1558 111.168 56.1707 110.929 56.2004 110.658C56.2104 110.523 56.3194 110.433 56.4831 110.41C56.736 110.401 56.9442 110.46 57.1277 110.631C57.4798 110.938 57.6186 111.285 57.6186 111.663C57.6186 111.812 57.5988 111.97 57.5542 112.128C57.4649 112.475 57.3459 112.813 57.1079 113.088C56.8996 113.318 56.7707 113.308 56.5922 113.101C56.3194 112.763 56.255 112.366 56.2004 111.961C56.1558 111.781 56.1459 111.415 56.1459 111.415ZM59.2451 111.393C59.1261 112.128 59.6815 113.565 60.7377 113.484C61.7989 113.385 62.0071 111.97 61.9724 111.253C61.9377 110.532 61.7889 109.342 60.7823 109.252C59.5526 109.153 59.3344 110.609 59.2451 111.393ZM59.8451 111.343C59.8997 110.789 59.9443 109.558 60.827 109.518C61.665 109.491 61.7889 110.897 61.7542 111.424C61.6997 111.871 61.5361 113.286 60.5344 113.169C59.8005 113.079 59.865 111.821 59.8451 111.343ZM67.3279 111.88C66.6832 112.466 66.4452 112.763 65.7907 113.349C65.5923 113.516 65.2799 113.705 65.0072 113.705C64.2733 113.705 64.2535 112.605 64.2535 112.227C64.2535 111.722 64.2634 111.195 64.3278 110.681C64.4072 110.014 64.4369 110.014 65.1559 109.937C65.3741 109.897 65.6072 109.897 65.8353 109.897C65.989 109.897 66.1279 109.897 66.2816 109.897C66.4651 109.897 66.4998 109.888 66.6436 109.779C66.589 109.739 66.5444 109.658 66.4899 109.658C65.9543 109.631 65.4088 109.608 64.8634 109.59C64.6452 109.581 64.5559 109.54 64.5559 109.383C64.5559 109.171 64.6799 108.103 64.7989 108.103C64.8634 107.724 64.8981 107.336 64.9824 106.962C64.9923 106.89 65.0072 106.823 65.0072 106.755C65.0072 106.476 64.7345 105.998 64.2981 105.998C64.0105 105.998 63.946 106.557 63.8815 106.953C63.7625 107.715 63.6187 108.477 63.4997 109.234C63.3906 109.847 63.346 109.599 62.3989 109.797C62.3542 109.815 62.3096 109.865 62.3096 109.915C62.3096 110.275 63.3361 109.964 63.3361 110.532C63.3361 110.649 63.2915 110.83 63.2915 111.019C63.2915 112.096 63.7377 114.003 65.0072 114.003C65.9444 114.003 66.9708 112.641 67.5461 111.979C67.5907 111.911 67.4717 111.713 67.3279 111.88ZM68.5924 109.5C69.9263 109.468 69.4006 110.87 69.4254 110.906C69.4254 110.969 69.4006 111.068 69.5345 111.068C69.6436 111.068 69.6635 111.005 69.6833 110.906C69.7081 110.789 70.4271 109.311 68.7263 109.135C67.7196 109.036 66.5444 110.334 67.4469 111.402C67.68 111.681 69.0287 112.79 69.2072 113.128C69.3808 113.426 69.6635 114.278 69.0287 114.241C68.6816 114.241 68.5527 113.507 68.5626 113.385C68.5626 113.358 68.5527 113.308 68.518 113.308C68.4833 113.286 68.4436 113.308 68.4089 113.308C68.1907 113.565 68.3742 114.539 69.0287 114.557C69.5891 114.575 70.2982 114.079 69.956 112.889C69.7725 112.245 68.4188 111.285 68.1362 110.978C67.3378 110.077 68.2006 109.509 68.5924 109.5ZM76.0107 110.482C75.7082 110.433 75.4107 110.424 75.1181 110.424C74.7462 110.424 73.9825 110.401 73.9825 110.55C73.9825 110.658 74.2652 110.739 74.3991 110.739C75.0189 110.739 75.6437 110.721 76.2834 110.721C76.3528 110.721 76.6107 110.721 76.6107 110.681C76.6107 110.609 76.328 110.559 76.0107 110.482ZM88.4621 111.582C87.9712 112.416 87.3563 113.011 86.8009 113.813C86.6621 114.021 86.2555 114.341 86.0819 114.341C85.9728 114.341 85.8637 114.251 85.8637 114.102C85.8637 113.218 86.1811 112.416 86.4538 111.591C86.5926 111.177 86.7265 110.771 86.7265 110.334C86.7265 109.847 86.31 109.45 85.7348 109.45C84.872 109.45 84.2372 110.41 83.9893 111.005C83.781 111.492 83.6273 112.137 83.3546 112.524C83.3 112.583 83.2108 112.632 83.1463 112.691C82.819 112.335 83.0471 111.253 82.5909 111.253C82.1099 111.253 81.7727 112.218 81.619 112.218C81.4107 112.218 81.4355 111.253 81.4455 111.285C81.3909 110.888 80.9744 110.501 80.5182 110.433C80.4636 110.433 80.3198 110.523 80.3198 110.573C80.3198 110.748 80.3645 110.92 80.3744 111.086C80.3892 111.195 80.4438 112.285 80.5083 112.524C80.5926 112.862 80.8901 113.484 81.3562 113.484C81.5099 113.484 81.5992 113.367 81.6835 113.088C81.8174 112.623 82.0256 111.938 82.4818 111.663C82.5166 111.731 82.6008 111.799 82.6108 111.871C82.6653 112.308 82.6108 113.029 83.1017 113.029C83.7166 113.029 84.0191 111.83 84.262 111.276C84.51 110.69 84.9166 110.135 85.591 109.829C85.6108 109.815 85.6455 109.806 85.6654 109.806C85.7447 109.806 85.7992 109.856 85.7992 109.915C85.7992 110.185 85.6356 110.532 85.5711 110.807C85.3827 111.582 85.1546 112.357 85.0108 113.137C84.991 113.227 84.991 113.318 84.991 113.408C84.991 113.994 85.4918 114.697 86.1017 114.697C86.6472 114.697 87.0439 114.093 87.3712 113.583C87.7183 113.061 88.4819 111.947 88.5266 111.929C88.6109 111.681 88.6654 111.573 88.4819 111.573C88.472 111.573 88.472 111.573 88.4621 111.582ZM94.9829 111.69C94.963 111.65 94.9283 111.632 94.8986 111.632C94.6556 111.632 93.7184 112.988 93.1828 113.696C92.9746 113.971 92.5184 114.449 92.1465 114.449C91.8539 114.449 91.7547 113.953 91.7547 113.683C91.7547 113.07 92.0622 112.443 92.2456 111.83C92.2803 111.722 92.3002 111.623 92.3002 111.533C92.3002 111.253 91.9283 110.92 91.4473 110.92C91.2737 110.92 91.1002 110.978 90.9464 111.104C90.3911 111.582 89.8654 112.078 89.3001 112.542C89.1365 112.673 89.0076 112.889 88.7547 112.889C88.5563 112.889 88.5018 112.344 88.5018 112.227C88.5018 111.415 89.6274 109.906 90.3167 109.906C90.7084 109.906 90.8621 110.212 90.8621 110.473C90.8621 110.532 90.8473 110.6 90.8473 110.658C90.8473 110.69 90.9365 110.807 91.001 110.807C91.1646 110.807 91.2192 110.523 91.2192 110.383C91.2192 110.005 90.763 109.599 90.3365 109.599C89.4092 109.599 88.5166 110.897 88.0555 111.763C87.9464 111.97 87.9018 112.227 87.9018 112.457C87.9018 112.921 88.1447 113.286 88.7547 113.286C89.3547 113.286 89.8654 112.533 90.3712 112.06C90.4456 111.988 90.7183 111.731 90.8473 111.731C90.8721 111.731 90.9712 111.781 90.9712 111.799C90.8621 112.276 90.7382 112.79 90.7382 113.277C90.7382 114.061 91.1349 115.003 92.0374 115.003C92.4737 115.003 92.9101 114.746 93.2275 114.341C93.763 113.656 94.2986 112.961 94.8093 112.258C94.8986 112.137 95.0275 112.019 95.0374 111.862C95.0374 111.812 95.0176 111.749 94.9829 111.69ZM99.773 111.632C99.6292 111.862 98.3201 113.327 98.1565 113.457C98.0375 113.556 97.9184 113.597 97.8094 113.597C97.4622 113.597 97.0556 112.862 96.7631 112.443C96.7085 112.366 96.6738 112.317 96.6738 112.276C96.6738 112.227 96.7283 112.195 96.8474 112.168C97.5168 111.961 98.2011 111.303 98.2011 110.681C98.2011 110.41 97.9829 110.194 97.6804 110.194C97.1201 110.194 96.2374 111.267 95.9449 111.898C95.8556 112.078 95.8358 112.276 95.6721 112.416C95.444 112.11 95.2258 111.343 95.2258 111.195C95.2258 111.037 95.2903 110.888 95.3994 110.73C95.8804 110.005 96.1383 109.252 96.4655 108.459C96.5994 108.121 96.654 107.796 96.654 107.467C96.654 106.606 96.3911 106.187 95.7267 106.187C95.5928 106.187 95.4292 106.21 95.2655 106.237C94.8986 106.318 94.3729 106.989 94.3085 107.427C94.2192 107.963 94.1647 108.499 94.1647 109.036C94.1647 109.568 94.2291 110.095 94.3729 110.631C94.4374 110.897 94.7994 112.119 94.9382 112.366C95.211 112.853 95.3994 113.327 95.7713 113.327C95.8457 113.327 95.9746 113.349 95.9746 113.151C95.9746 113.07 95.9449 113.002 95.9449 112.93C95.9449 112.781 96.0192 112.506 96.163 112.506C96.2821 112.506 96.6292 112.921 96.773 113.079C97.0903 113.426 97.3829 113.813 97.8292 113.813C98.2656 113.813 98.4639 113.507 98.7565 113.187C99.0986 112.772 99.902 111.848 99.902 111.681C99.902 111.591 99.8821 111.564 99.8623 111.564C99.8375 111.564 99.7929 111.614 99.773 111.632ZM95.082 110.51C94.963 110.302 94.8986 110.014 94.8986 109.766C94.8986 109.103 94.9085 108.441 94.9283 107.765C94.9283 107.219 95.3548 106.435 95.8011 106.435C96.1928 106.435 96.4457 107.03 96.4457 107.427C96.4457 108.4 95.7366 109.432 95.2258 110.383C95.201 110.433 95.1366 110.46 95.082 110.51ZM96.3267 111.979C96.3168 111.979 96.3168 111.947 96.3168 111.92C96.3168 111.433 97.4622 110.374 97.7746 110.374C97.9284 110.374 97.9631 110.721 97.9631 110.681C97.9631 111.352 97.135 111.88 96.6093 112.078C96.5994 112.078 96.5895 112.087 96.5895 112.087C96.5102 112.087 96.3812 111.997 96.3267 111.979ZM102.535 111.731C102.5 111.713 102.466 111.681 102.436 111.681C102.282 111.681 101.737 112.227 101.429 112.475C101.082 112.754 100.547 113.218 100.254 113.218C99.9813 113.218 99.8821 112.93 99.8821 112.466C99.8821 111.929 100.026 111.352 100.026 110.821C100.026 110.609 99.892 110.253 99.5102 110.253C99.1284 110.253 99.1532 111.799 99.1532 111.871C99.1532 112.565 99.535 113.516 100.199 113.516C100.864 113.516 101.836 112.425 102.545 111.781C102.545 111.763 102.545 111.731 102.535 111.731ZM99.8276 109.491C99.8375 109.518 99.902 109.531 99.9565 109.549C100.145 109.459 100.219 109.383 100.219 109.243C100.219 109.112 100.11 108.837 99.9168 108.837C99.7631 108.837 99.7284 108.923 99.7284 108.995C99.7284 109.112 99.7829 109.333 99.8276 109.491ZM108.972 112.037C108.481 112.763 107.955 113.475 107.429 114.178C107.31 114.341 106.983 114.566 106.854 114.566C106.492 114.566 106.492 113.953 106.492 113.633C106.492 113.128 106.646 112.493 106.72 112.01C106.745 111.65 106.775 111.325 106.775 110.996C106.775 110.334 106.626 109.716 105.981 109.716C105.426 109.716 104.727 110.325 104.39 110.83C104.038 111.343 103.72 111.898 103.328 112.385C103.299 112.344 103.264 112.317 103.254 112.267C103.165 111.74 103.056 111.217 103.036 110.69C103.011 110.144 102.709 109.788 102.208 109.549C102.153 109.518 102.064 109.5 102 109.5C101.856 109.5 101.781 109.617 101.781 109.739C101.781 109.757 101.781 109.779 101.791 109.788C101.99 110.275 102 110.78 102.054 111.285C102.109 112.087 102.5 113.565 103.036 113.565C103.373 113.565 103.482 113.286 103.527 113.079C103.666 112.326 104.171 111.713 104.628 111.104C104.91 110.739 105.5 110.063 105.981 110.063C106.135 110.063 106.19 110.194 106.19 110.334C106.19 110.51 106.11 110.672 106.081 110.839C105.927 111.573 105.728 112.294 105.728 113.038C105.728 113.854 105.763 115.035 106.884 115.035C107.335 115.035 107.464 114.764 107.856 114.169C108.248 113.583 108.619 112.961 109.026 112.376C109.066 112.317 109.373 111.862 109.408 111.83C109.383 111.79 109.373 111.781 109.338 111.781C109.319 111.781 109.299 111.79 109.274 111.79C109.264 111.79 109.244 111.781 109.229 111.749C109.219 111.799 108.991 111.997 108.972 112.037ZM114.882 111.74C114.193 112.227 113.672 112.294 112.963 112.772C112.899 112.813 112.829 112.831 112.775 112.831C112.681 112.831 112.601 112.763 112.601 112.641C112.601 112.556 112.611 112.475 112.611 112.394C112.611 111.772 112.22 111.235 112.12 110.631C112.046 110.203 111.729 110.027 111.228 110.027C110.499 110.027 109.909 110.334 109.517 110.857C109.329 111.104 108.828 111.911 108.828 112.466C108.828 112.804 109.081 113.07 109.363 113.07C109.735 113.07 110.717 112.344 111.347 111.938C111.391 111.92 111.426 111.911 111.456 111.911C111.699 111.911 111.59 112.831 111.684 113.2C111.709 113.299 111.729 113.399 111.729 113.484C111.729 113.822 111.545 114.111 111.292 114.39C110.811 114.913 110.365 115.458 109.953 116.026C109.244 116.995 108.644 117.897 108.644 119.208C108.644 119.903 109.19 120.466 109.899 120.466C110.008 120.466 110.117 120.457 110.226 120.416C112.175 119.781 112.7 118.762 112.7 116.175C112.7 115.44 112.681 114.706 112.681 113.98C112.681 113.061 113.474 112.772 114.391 112.317C115.036 111.997 115.011 111.641 114.882 111.74ZM111.59 118.393C111.347 119.087 110.856 119.632 110.082 119.912C109.929 119.97 109.79 120.002 109.666 120.002C109.229 120.002 109.036 119.664 109.036 119.06C109.036 118.861 109.066 118.672 109.135 118.492C109.681 117.077 110.499 115.778 111.491 114.575C111.535 114.525 111.644 114.516 111.729 114.489C111.793 114.674 111.808 114.836 111.808 115.044C111.808 115.269 111.808 115.508 111.808 115.747C111.848 116.044 111.872 116.351 111.872 116.648C111.872 117.234 111.783 117.82 111.59 118.393ZM111.738 111.285C111 111.74 110.236 112.186 109.472 112.623C109.462 112.632 109.438 112.632 109.428 112.632C109.363 112.632 109.254 112.592 109.254 112.466C109.472 111.564 110.127 110.253 111.347 110.253C111.664 110.253 111.892 110.482 111.892 110.956C111.892 111.077 111.828 111.235 111.738 111.285ZM121.72 111.88C121.081 112.466 120.838 112.763 120.183 113.349C119.99 113.516 119.673 113.705 119.4 113.705C118.666 113.705 118.646 112.605 118.646 112.227C118.646 111.722 118.656 111.195 118.72 110.681C118.8 110.014 118.83 110.014 119.553 109.937C119.772 109.897 120 109.897 120.228 109.897C120.382 109.897 120.52 109.897 120.674 109.897C120.863 109.897 120.892 109.888 121.036 109.779C120.982 109.739 120.937 109.658 120.882 109.658C120.347 109.631 119.801 109.608 119.256 109.59C119.038 109.581 118.953 109.54 118.953 109.383C118.953 109.171 119.072 108.103 119.192 108.103C119.256 107.724 119.291 107.336 119.375 106.962C119.39 106.89 119.4 106.823 119.4 106.755C119.4 106.476 119.127 105.998 118.691 105.998C118.408 105.998 118.339 106.557 118.274 106.953C118.155 107.715 118.011 108.477 117.892 109.234C117.783 109.847 117.739 109.599 116.791 109.797C116.747 109.815 116.702 109.865 116.702 109.915C116.702 110.275 117.729 109.964 117.729 110.532C117.729 110.649 117.684 110.83 117.684 111.019C117.684 112.096 118.135 114.003 119.4 114.003C120.337 114.003 121.363 112.641 121.939 111.979C121.983 111.911 121.864 111.713 121.72 111.88ZM127.755 111.632C127.701 111.623 127.492 112.245 127.463 112.326C127.319 112.583 126.273 114.895 125.608 114.895C125.301 114.895 125.127 114.241 125.127 113.872C125.127 113.376 125.355 112.763 125.474 112.236C125.554 111.88 125.638 111.474 125.638 111.118C125.638 110.757 125.355 110.55 124.735 110.55C124.001 110.55 123.273 111.276 122.92 111.938C122.891 112.019 122.811 112.069 122.747 112.137C122.39 111.772 122.291 111.424 122.291 111.046C122.291 110.798 122.365 110.55 122.563 110.311C122.757 110.077 122.881 109.779 123.02 109.491C123.302 108.914 123.555 108.328 123.555 107.634C123.555 107.575 123.555 107.526 123.555 107.467C123.555 107.427 123.565 107.35 123.565 107.269C123.565 106.773 123.238 106.435 122.792 106.435C122.127 106.435 121.557 107.21 121.428 107.895C121.339 108.342 121.299 108.774 121.299 109.22C121.299 109.838 121.492 110.41 121.547 111.019C121.919 113.07 122.648 113.011 122.608 113.011C122.881 113.011 123.263 112.087 123.491 111.672C123.674 111.343 123.957 111.118 124.284 110.92C124.373 110.87 124.517 110.87 124.611 110.839C124.636 110.906 124.681 110.987 124.681 111.068C124.681 111.077 124.681 111.077 124.681 111.086C124.592 111.6 124.527 112.128 124.418 112.641C124.363 112.871 124.329 113.11 124.329 113.336C124.329 114.07 124.735 115.193 125.608 115.193C126.565 115.193 127.473 112.88 127.646 112.376C127.666 112.308 127.82 111.947 127.82 111.749C127.82 111.69 127.8 111.641 127.755 111.632ZM122.038 110.104C122.008 109.716 121.983 109.32 121.963 108.995C121.973 108.896 121.973 108.788 121.973 108.689C121.973 108.526 121.963 108.378 121.963 108.229C121.963 107.656 122.147 107.111 122.618 106.764C122.692 106.705 122.792 106.674 122.866 106.674C123.154 106.674 123.282 107.071 123.282 107.368C123.248 108.044 123.139 108.707 122.782 109.311C122.608 109.608 122.335 110.235 122.157 110.235C122.117 110.235 122.048 110.153 122.038 110.104ZM130.463 111.862C130.274 112.096 129.283 113.399 128.519 113.399C128.018 113.399 127.929 112.772 127.929 112.308C127.929 112.019 127.899 111.731 128.291 111.641C128.935 111.501 129.793 110.807 129.793 110.482C129.793 110.045 129.317 109.779 129.02 109.779C127.636 109.779 127.329 111.294 127.274 111.961C127.274 113.002 127.8 113.647 128.484 113.647C129.129 113.647 130.354 112.493 130.656 111.929C130.765 111.722 130.592 111.722 130.463 111.862ZM128.856 110.194C128.945 110.113 129.03 110.063 129.129 110.063C129.337 110.063 129.466 110.212 129.466 110.433C129.466 110.721 128.826 111.145 128.4 111.303C128.39 111.316 128.365 111.316 128.345 111.316C128.281 111.316 128.266 111.285 128.266 111.235C128.266 110.92 128.608 110.451 128.856 110.194ZM136.736 107.814C136.765 107.733 136.82 107.237 136.82 106.674C136.82 106.169 136.775 105.615 136.626 105.254C136.572 105.105 136.473 104.948 136.364 104.821C136.165 104.601 135.903 104.501 135.655 104.501C135.382 104.501 135.109 104.623 134.901 104.848C134.355 105.443 134.083 106.16 133.939 106.913C133.721 108.094 133.517 109.284 133.493 110.491C133.493 110.708 133.448 110.73 133.19 110.699C132.957 110.681 132.719 110.64 132.501 110.681C132.293 110.699 132.238 110.906 132.347 111.077C132.536 111.433 132.883 111.623 133.245 111.781C133.448 111.88 133.502 111.988 133.517 112.168C133.547 112.732 133.527 115.927 133.899 116.779C134.063 117.176 134.336 117.491 134.782 117.622C135.119 117.748 135.481 117.315 135.6 116.977C135.699 116.68 135.729 116.4 135.729 116.112C135.729 115.878 135.709 115.639 135.674 115.391C135.446 113.98 135.293 113.128 134.792 112.137C134.703 112.019 134.965 112.11 135.119 112.096C135.62 112.019 136.101 111.947 136.592 111.889C136.646 111.88 136.765 111.83 136.746 111.772C136.746 111.713 136.626 111.713 136.582 111.713C136.066 111.749 135.555 111.812 135.03 111.83C134.638 111.862 134.39 111.672 134.345 111.325C134.291 111.077 134.281 110.807 134.281 110.559C134.291 109.392 134.499 108.242 134.693 107.102C134.812 106.494 134.965 105.912 135.248 105.367C135.327 105.205 135.62 104.848 135.848 104.93C136.463 105.155 136.582 106.097 136.582 106.832C136.582 107.3 136.527 107.674 136.527 107.747C136.527 107.783 136.582 107.832 136.612 107.846C136.636 107.855 136.721 107.832 136.736 107.814ZM134.41 112.159C134.574 112.218 135.382 114.773 135.382 116.175C135.382 116.707 135.273 117.068 134.955 117.068C134.256 117.068 134.336 113.723 134.311 112.425C134.311 112.376 134.321 112.308 134.345 112.236C134.355 112.209 134.375 112.146 134.41 112.159ZM132.828 110.848C133.299 110.857 133.537 111.068 133.483 111.402C133.463 111.501 133.374 111.551 133.284 111.483C133.081 111.352 132.893 111.186 132.709 111.028C132.699 111.019 132.709 110.938 132.709 110.92C132.729 110.879 132.793 110.857 132.828 110.848ZM140.802 113.773C140.663 113.953 140.519 114.219 140.281 114.219C140.018 114.219 139.909 113.953 139.909 113.615C139.909 112.831 140.236 112.01 140.236 111.253C140.236 111.019 140.117 110.473 139.627 110.473C139.23 110.473 138.937 110.978 138.684 111.226C138.248 111.663 137.365 112.682 137.093 112.682C136.919 112.682 136.83 112.493 136.83 112.344C136.83 111.69 137.227 111.019 137.227 110.392C137.227 110.275 137.117 110.176 137.028 110.176C136.954 110.176 136.865 110.212 136.82 110.253C136.711 110.392 136.274 112.236 136.274 112.623C136.274 112.952 136.612 113.218 136.865 113.218C137.202 113.218 137.539 112.871 137.782 112.623C138.228 112.177 138.828 111.375 139.165 111.253C139.091 111.79 138.992 112.267 138.992 112.772C138.992 113.417 139.23 114.746 140.083 114.746C140.519 114.746 140.727 114.399 140.946 114.093C141.456 113.399 141.972 112.714 142.493 112.019C142.572 111.929 142.627 111.871 142.666 111.83C142.656 111.713 142.646 111.591 142.627 111.465C142.037 112.245 141.427 113.011 140.802 113.773ZM146.266 111.88C145.627 112.466 145.384 112.763 144.729 113.349C144.536 113.516 144.218 113.705 143.946 113.705C143.212 113.705 143.192 112.605 143.192 112.227C143.192 111.722 143.202 111.195 143.266 110.681C143.346 110.014 143.375 110.014 144.099 109.937C144.318 109.897 144.546 109.897 144.774 109.897C144.927 109.897 145.066 109.897 145.22 109.897C145.408 109.897 145.438 109.888 145.582 109.779C145.527 109.739 145.483 109.658 145.428 109.658C144.893 109.631 144.347 109.608 143.802 109.59C143.584 109.581 143.499 109.54 143.499 109.383C143.499 109.171 143.618 108.103 143.737 108.103C143.802 107.724 143.837 107.336 143.921 106.962C143.936 106.89 143.946 106.823 143.946 106.755C143.946 106.476 143.673 105.998 143.237 105.998C142.954 105.998 142.884 106.557 142.82 106.953C142.701 107.715 142.557 108.477 142.438 109.234C142.329 109.847 142.284 109.599 141.337 109.797C141.293 109.815 141.248 109.865 141.248 109.915C141.248 110.275 142.275 109.964 142.275 110.532C142.275 110.649 142.23 110.83 142.23 111.019C142.23 112.096 142.681 114.003 143.946 114.003C144.883 114.003 145.909 112.641 146.485 111.979C146.529 111.911 146.41 111.713 146.266 111.88ZM150.59 113.773C150.447 113.953 150.303 114.219 150.065 114.219C149.802 114.219 149.693 113.953 149.693 113.615C149.693 112.831 150.02 112.01 150.02 111.253C150.02 111.019 149.901 110.473 149.41 110.473C149.018 110.473 148.721 110.978 148.473 111.226C148.037 111.663 147.154 112.682 146.881 112.682C146.703 112.682 146.618 112.493 146.618 112.344C146.618 111.69 147.01 111.019 147.01 110.392C147.01 110.275 146.901 110.176 146.812 110.176C146.737 110.176 146.648 110.212 146.608 110.253C146.499 110.392 146.063 112.236 146.063 112.623C146.063 112.952 146.4 113.218 146.648 113.218C146.99 113.218 147.327 112.871 147.566 112.623C148.012 112.177 148.612 111.375 148.954 111.253C148.875 111.79 148.775 112.267 148.775 112.772C148.775 113.417 149.018 114.746 149.866 114.746C150.303 114.746 150.511 114.399 150.729 114.093C151.245 113.399 151.756 112.714 152.281 112.019C152.356 111.929 152.41 111.871 152.455 111.83C152.445 111.713 152.43 111.591 152.41 111.465C151.82 112.245 151.21 113.011 150.59 113.773ZM157.428 111.74C157.428 111.731 157.285 111.632 157.245 111.632C157.275 111.632 155.4 113.994 154.909 113.994C154.557 113.994 154.354 113.498 154.354 112.988C154.354 112.763 154.394 112.524 154.493 112.276C154.666 111.83 154.776 111.343 154.919 110.879C154.939 110.83 154.939 110.78 154.939 110.73C154.939 110.203 154.121 110.113 153.685 110.045C152.881 109.928 153.412 109.59 153.03 108.964C152.936 108.806 152.772 108.725 152.618 108.725C152.291 108.725 152.018 109.121 152.018 109.419C152.018 109.68 152.182 109.928 152.509 110.104C152.747 110.244 152.827 110.284 152.827 110.401C152.827 110.64 152.43 111.452 152.028 111.947C151.974 112.046 152.157 112.11 152.212 112.069C152.757 111.582 152.976 110.293 153.372 110.302C153.754 110.311 154.057 110.473 154.057 110.622C154.057 110.672 154.047 110.739 154.027 110.821C153.828 111.393 153.457 112.195 153.457 112.705C153.457 113.367 154.091 114.327 154.974 114.327C155.202 114.327 155.376 114.251 155.539 114.061C155.976 113.534 157.428 111.92 157.428 111.74ZM152.911 109.748C152.881 109.806 152.837 109.906 152.802 109.906C152.485 109.879 152.41 109.649 152.41 109.482C152.41 109.32 152.519 109.036 152.673 109.036C152.837 109.036 152.911 109.509 152.936 109.599C152.921 109.707 152.921 109.73 152.911 109.748ZM159.957 111.862C159.774 112.096 158.782 113.399 158.019 113.399C157.518 113.399 157.428 112.772 157.428 112.308C157.428 112.019 157.394 111.731 157.79 111.641C158.43 111.501 159.293 110.807 159.293 110.482C159.293 110.045 158.812 109.779 158.519 109.779C157.136 109.779 156.828 111.294 156.774 111.961C156.774 113.002 157.3 113.647 157.984 113.647C158.629 113.647 159.848 112.493 160.156 111.929C160.265 111.722 160.091 111.722 159.957 111.862ZM158.356 110.194C158.445 110.113 158.529 110.063 158.628 110.063C158.837 110.063 158.966 110.212 158.966 110.433C158.966 110.721 158.321 111.145 157.9 111.303C157.885 111.316 157.865 111.316 157.845 111.316C157.776 111.316 157.766 111.285 157.766 111.235C157.766 110.92 158.103 110.451 158.356 110.194Z" fill="url(#paint1_linear)"/>
<path d="M23.5243 98.0156C24.1591 98.0156 24.8334 97.9795 25.5475 97.7992V96.9699C23.7624 96.9699 23.088 96.5011 20.9061 94.0853L12.6944 84.9266V84.8545C16.8201 84.2776 19.6763 82.1141 19.6763 78.941C19.6763 75.8761 17.0581 73.6406 11.0283 73.6406C9.24312 73.6406 7.4183 73.8208 3.76865 73.8208H0V74.6502C3.13393 74.7223 3.76865 74.9386 3.76865 77.4266V94.1934C3.76865 96.6814 3.13393 96.8978 0.991751 96.9699V97.7992H10.8696V96.9699C7.77533 96.8978 7.14061 96.6814 7.14061 94.1934V77.4266C7.14061 75.2271 8.05302 74.9386 9.95718 74.9386C13.0118 74.9386 16.0267 75.6598 16.0267 79.1934C16.0267 82.655 13.0118 84.4218 7.93401 84.0252V85.1069C8.48939 85.143 8.72741 85.2872 9.4018 86.0444L17.5738 95.167C18.9226 96.6814 20.2317 98.0156 23.5243 98.0156ZM46.0569 94.1934L39.5907 76.6694C39.075 75.4074 38.599 74.2535 38.2419 72.9915H36.2981C35.9411 74.2535 35.4253 75.4074 34.9096 76.6694L27.888 94.1934C27.1343 96.0324 26.2616 96.8617 24.5954 96.9699V97.7992H32.8071V96.9699C29.4352 96.8617 29.0385 96.0324 29.7129 94.1934L31.5774 89.4338C32.0137 88.3882 32.4898 88.28 33.6402 88.28H38.837C39.3924 88.28 39.9874 88.2439 40.2651 87.9915L42.5263 94.1934C43.4387 96.6093 42.8833 96.8617 40.1858 96.9699V97.7992H49.6669V96.9699C47.6041 96.8617 47.009 96.7175 46.0569 94.1934ZM38.9163 86.9819H33.6005C33.1245 86.9819 32.7278 86.9819 32.4898 87.0901L36.2981 77.5348H36.3774L39.6304 86.2968C39.8684 86.8737 39.5907 86.9819 38.9163 86.9819ZM59.6637 98.0877H61.7663C62.0836 96.8257 62.3216 96.2487 62.8373 94.9507L69.9779 77.4266C70.692 75.6237 71.6838 74.7583 73.2309 74.6502V73.8208H65.0589V74.6502C68.3118 74.7583 68.7482 75.6237 68.0341 77.4266L61.6076 93.1838H61.5282L55.2207 77.4266C54.2686 75.0468 54.586 74.7583 57.2042 74.6502L57.2439 73.8208H48.1594V74.6502C49.9446 74.7583 50.5396 74.9386 51.5314 77.4266L58.672 94.9507C59.1877 96.2127 59.3464 96.8257 59.6637 98.0877ZM107.466 93.3641C107.03 92.7151 106.593 92.1021 106.157 91.5252C107.03 89.9386 107.585 88.1718 107.823 86.2968C108.022 84.8545 108.537 84.6382 111.949 84.566V83.7367H104.174V84.566C105.483 84.6382 106.435 84.8184 106.276 86.1526C106.157 87.5949 105.721 88.929 105.086 90.155C102.15 86.4771 99.6115 84.3858 97.628 82.8713C100.246 81.6454 102.19 80.0228 102.19 77.7511C102.19 74.8665 99.1751 73.28 96.5172 73.28C93.4626 73.28 90.3684 75.155 90.3684 78.2559C90.3684 80.6357 91.5585 81.9338 93.542 83.5925C89.8923 85.2872 86.322 87.5949 86.322 91.8497C86.322 95.6718 90.0113 98.3401 94.6527 98.3401C98.4214 98.3401 101.754 96.7896 104.134 94.2656C104.213 94.3377 104.253 94.4459 104.332 94.518C105.8 96.5733 108.061 98.0156 111.274 98.0156C111.87 98.0156 112.504 97.9795 113.179 97.7992V96.9699C111.274 96.9699 109.608 96.5011 107.466 93.3641ZM96.2792 74.5781C98.1437 74.5781 99.2941 75.768 99.2941 77.7872C99.2941 79.6261 98.3024 80.8882 96.5569 82.0781C94.494 80.5276 93.2643 79.554 93.2643 77.643C93.2643 75.7319 94.613 74.5781 96.2792 74.5781ZM95.6841 95.9603C92.3122 95.9603 89.6543 94.1213 89.6543 91.1285C89.6543 88.0276 91.9155 86.0444 94.5337 84.4218C96.7552 86.1886 99.7305 88.5684 103.102 92.8593C101.119 94.7704 98.5007 95.9603 95.6841 95.9603ZM133.807 98.3401C137.02 98.3401 139.639 96.7175 141.146 94.4459L140.511 93.8689C139.004 95.167 137.139 95.9603 135.275 95.9603C131.665 95.9603 129.007 93.2199 129.007 88.9651C129.007 85.4314 130.99 82.7271 134.481 82.7271C136.584 82.7271 139.162 83.7007 139.599 87.4146H140.511V82.691C138.964 81.7535 136.862 81.393 135.235 81.393C130.276 81.393 125.754 84.6382 125.754 90.3353C125.754 95.6718 129.642 98.3401 133.807 98.3401ZM153.483 81.393C149.358 81.393 144.439 84.3858 144.439 90.155C144.439 95.0588 148.366 98.3401 152.928 98.3401C157.093 98.3401 162.012 95.3473 162.012 89.5781C162.012 84.6742 158.045 81.393 153.483 81.393ZM153.602 96.8978C150.151 96.8978 147.811 93.4362 147.811 89.1093C147.811 84.8184 149.754 82.8353 152.809 82.8353C156.3 82.8353 158.64 86.2247 158.64 90.6237C158.64 94.9146 156.697 96.8978 153.602 96.8978ZM167.685 98.3401C168.836 98.3401 169.748 97.5108 169.748 96.4651C169.748 95.4555 168.836 94.6261 167.685 94.6261C166.535 94.6261 165.622 95.4555 165.622 96.4651C165.622 97.5108 166.535 98.3401 167.685 98.3401Z" fill="url(#paint2_linear)"/>
<defs>
<linearGradient id="paint0_linear" x1="87.4054" y1="0" x2="87.4054" y2="61.6648" gradientUnits="userSpaceOnUse">
<stop offset="0.265625" stop-color="#58C7CE"/>
<stop offset="0.453125" stop-color="#4FFFAA" stop-opacity="0.995313"/>
<stop offset="0.833333" stop-color="#2362C0" stop-opacity="0.99"/>
</linearGradient>
<linearGradient id="paint1_linear" x1="84.6263" y1="104.501" x2="84.6263" y2="120.466" gradientUnits="userSpaceOnUse">
<stop offset="0.265625" stop-color="#58C7CE"/>
<stop offset="0.453125" stop-color="#4FFFAA" stop-opacity="0.995313"/>
<stop offset="0.833333" stop-color="#2362C0" stop-opacity="0.99"/>
</linearGradient>
<linearGradient id="paint2_linear" x1="84.8741" y1="72.9915" x2="84.8741" y2="98.3401" gradientUnits="userSpaceOnUse">
<stop offset="0.265625" stop-color="#58C7CE"/>
<stop offset="0.453125" stop-color="#4FFFAA" stop-opacity="0.995313"/>
<stop offset="0.833333" stop-color="#2362C0" stop-opacity="0.99"/>
</linearGradient>
</defs>
</svg>
