<svg viewBox="0 0 207 173" fill="none" xmlns="http://www.w3.org/2000/svg">
<path d="M2.17036 149.395C28.7403 164.297 64.7195 172.504 103.484 172.505C142.246 172.504 178.225 164.297 204.795 149.395C207.839 147.687 207.659 145.013 204.393 143.421C201.126 141.83 196.011 141.924 192.967 143.632C169.489 156.8 137.71 164.052 103.481 164.052C69.2554 164.052 37.4765 156.8 13.9989 143.632C12.4066 142.739 10.2477 142.287 8.083 142.287C6.10915 142.287 4.13046 142.663 2.57256 143.421C-0.693608 145.013 -0.873891 147.687 2.17036 149.395Z" fill="#63C814"/>
<path d="M12.924 126.177C36.7766 141.079 69.0761 149.287 103.876 149.287C138.674 149.287 170.973 141.079 194.826 126.177C197.558 124.469 197.397 121.795 194.465 120.204C191.532 118.612 186.94 118.706 184.207 120.414C163.131 133.582 134.602 140.834 103.874 140.834C73.1481 140.834 44.6193 133.582 23.5428 120.414C22.1134 119.521 20.1752 119.069 18.232 119.069C16.46 119.069 14.6837 119.445 13.2851 120.204C10.353 121.795 10.1911 124.469 12.924 126.177Z" fill="#99C814"/>
<path d="M22.8937 102.669C44.0289 117.758 72.6487 126.069 103.484 126.069C134.317 126.069 162.937 117.758 184.073 102.669C186.494 100.94 186.351 98.2321 183.753 96.6207C181.154 95.0095 177.085 95.1045 174.663 96.8336C155.988 110.167 130.709 117.51 103.482 117.51C76.2567 117.51 50.9781 110.167 32.3027 96.8336C31.0362 95.9293 29.3188 95.4719 27.5969 95.4719C26.0268 95.4719 24.4529 95.8523 23.2136 96.6207C20.6155 98.2323 20.4721 100.94 22.8937 102.669Z" fill="#C4C814"/>
<path d="M32.5605 79.0716C51.221 94.1612 76.4898 102.472 103.715 102.472C130.938 102.472 156.206 94.1612 174.867 79.0716C177.005 77.3428 176.879 74.6348 174.585 73.0234C172.291 71.4123 168.698 71.5073 166.56 73.2363C150.071 86.5699 127.752 93.913 103.713 93.9132C79.6754 93.913 57.3566 86.5699 40.8679 73.2363C39.7496 72.3321 38.2333 71.8747 36.7131 71.8747C35.3268 71.8747 33.9371 72.2551 32.843 73.0234C30.5491 74.635 30.4225 77.3428 32.5605 79.0716Z" fill="#C89514"/>
<path d="M43.7312 55.4744C59.3151 70.564 80.4177 78.8744 103.154 78.8746C125.888 78.8744 146.991 70.564 162.575 55.4744C164.36 53.7456 164.255 51.0376 162.339 49.4262C160.423 47.815 157.423 47.91 155.637 49.6391C141.867 62.9726 123.228 70.3158 103.152 70.316C83.078 70.3158 64.4391 62.9726 50.6689 49.6391C49.735 48.7349 48.4687 48.2774 47.1991 48.2774C46.0414 48.2774 44.8809 48.6579 43.9671 49.4262C42.0515 51.0378 41.9457 53.7456 43.7312 55.4744Z" fill="#C88014"/>
<path d="M52.1537 32.0951C65.526 47.0441 83.6339 55.2772 103.144 55.2774C122.652 55.2772 140.76 47.0441 154.132 32.0951C155.664 30.3823 155.574 27.6996 153.93 26.1032C152.286 24.507 149.711 24.6011 148.179 26.3141C136.363 39.5235 120.369 46.7982 103.142 46.7984C85.9167 46.7982 69.9228 39.5235 58.1069 26.3141C57.3055 25.4183 56.2189 24.9651 55.1295 24.9651C54.1361 24.9651 53.1402 25.342 52.3561 26.1032C50.7123 27.6998 50.6216 30.3823 52.1537 32.0951Z" fill="#C85514"/>
<path d="M62.5042 16.0507C73.848 26.3137 88.5403 31.9655 103.875 31.9651C119.213 31.9649 133.905 26.3128 145.246 16.0503C147.062 14.4065 147.051 11.7517 145.22 10.1207C143.389 8.48967 140.433 8.49994 138.616 10.1438C129.043 18.8076 116.705 23.5791 103.875 23.5793C91.0482 23.5797 78.7101 18.808 69.133 10.1434C68.2201 9.31756 67.0196 8.90414 65.8186 8.90414C64.6297 8.90414 63.4399 9.30959 62.5289 10.1211C60.6987 11.7524 60.6875 14.4071 62.5042 16.0507Z" fill="#C83414"/>
<path d="M75.3893 7.15858C82.8426 12.5532 93.5263 15.9041 103.272 15.9041C103.273 15.9041 103.275 15.9041 103.276 15.9041L103.689 15.9041C103.691 15.9041 103.691 15.9041 103.693 15.9041C113.439 15.9041 124.124 12.553 131.577 7.15858C133.824 5.53177 133.841 2.88187 131.614 1.23978C130.494 0.413817 129.019 0.000101067 127.544 0.000101067C126.087 0.000101067 124.629 0.403768 123.513 1.21215C118.207 5.05255 110.428 7.53358 103.693 7.53358C103.692 7.53358 103.691 7.53358 103.69 7.53358L103.275 7.53358C103.274 7.53358 103.274 7.53358 103.273 7.53358C96.5386 7.53358 88.7589 5.05234 83.4536 1.21215C81.2062 -0.414452 77.5783 -0.402729 75.3517 1.23978C73.1246 2.88166 73.1415 5.53177 75.3893 7.15858Z" fill="#C81414"/>
</svg>
