<svg xmlns="http://www.w3.org/2000/svg">
  <symbol id="no_camera" viewBox="0 0 512 512">
    <g>
      <g>
        <path d="M508.869,3.131c-4.16-4.16-10.923-4.16-15.083,0L3.12,493.797c-4.16,4.16-4.16,10.923,0,15.083
          c2.091,2.069,4.821,3.115,7.552,3.115c2.731,0,5.461-1.045,7.531-3.115L508.869,18.213
          C513.029,14.053,513.029,7.291,508.869,3.131z"/>
      </g>
    </g>
    <g>
      <g>
        <path d="M352.005,106.661H53.339c-29.419,0-53.333,23.936-53.333,53.333v192c0,29.397,23.915,53.333,53.333,53.333h21.333
          c5.888,0,10.667-4.779,10.667-10.667s-4.779-10.667-10.667-10.667H53.339c-17.643,0-32-14.357-32-32v-192
          c0-17.643,14.357-32,32-32h298.667c5.888,0,10.667-4.779,10.667-10.667S357.893,106.661,352.005,106.661z"/>
      </g>
    </g>
    <g>
      <g>
        <path d="M507.312,129.829c-2.944-1.963-6.677-2.389-9.941-1.067l-92.032,36.821v-5.589c0-5.888-4.779-10.667-10.667-10.667
          s-10.667,4.779-10.667,10.667v21.333c0,3.541,1.749,6.848,4.693,8.832c2.923,1.963,6.677,2.368,9.941,1.067l92.032-36.821v203.179
          l-92.032-36.821c-3.264-1.323-7.019-0.917-9.941,1.067c-2.944,1.984-4.693,5.291-4.693,8.832v21.333c0,17.643-14.357,32-32,32
          h-192c-5.888,0-10.667,4.779-10.667,10.667s4.779,10.667,10.667,10.667h192c29.419,0,53.333-23.936,53.333-53.333v-5.589
          l92.032,36.821c3.285,1.301,7.019,0.917,9.941-1.067c2.944-1.984,4.693-5.291,4.693-8.832V138.661
          C512.005,135.12,510.256,131.813,507.312,129.829z"/>
      </g>
    </g>
  </symbol>

  <symbol id="signal-up-1" viewBox="0 0 44 17">
    <g>
      <path d="M42.0896 9.11333C36.7597 3.71873 29.1199 0.367798 22.1509 0.367798C22.1501 0.367798 22.1487 0.367798 22.1479 0.367798L21.8527 0.367798C21.8515 0.367798 21.8508 0.367798 21.8496 0.367798C14.8804 0.367798 7.23999 3.71894 1.91032 9.11333C0.303163 10.7401 0.291078 13.39 1.88349 15.0321C2.68461 15.8581 3.73911 16.2718 4.79382 16.2718C5.83583 16.2718 6.87825 15.8681 7.67691 15.0598C11.4711 11.2194 17.0339 8.73833 21.85 8.73833C21.8506 8.73833 21.8515 8.73833 21.8521 8.73833L22.1485 8.73833C22.1493 8.73833 22.1495 8.73833 22.1503 8.73833C26.9659 8.73833 32.529 11.2196 36.3228 15.0598C37.93 16.6864 40.5243 16.6746 42.1165 15.0321C43.7091 13.3903 43.697 10.7401 42.0896 9.11333Z"/>
    </g>
  </symbol>

  <symbol id="signal-up-2" viewBox="0 0 62 24">
    <g>
      <path d="M60.3037 16.2212C52.1918 5.95828 41.6854 0.306465 30.7197 0.306885C19.7515 0.307094 9.24499 5.95913 1.1356 16.2217C-0.16332 17.8655 -0.155139 20.5202 1.15396 22.1513C2.46307 23.7823 4.57723 23.772 5.87615 22.1282C12.7222 13.4644 21.5451 8.69289 30.7197 8.69269C39.892 8.69227 48.7149 13.464 55.5635 22.1286C56.2163 22.9544 57.0747 23.3678 57.9336 23.3678C58.7837 23.3678 59.6345 22.9624 60.286 22.1508C61.5948 20.5196 61.6028 17.8649 60.3037 16.2212Z"/>
    </g>
  </symbol>

  <symbol id="signal-up-3" viewBox="0 0 75 32">
    <g>
      <path d="M73.7052 24.1769C64.1427 9.2278 51.1939 0.994719 37.2425 0.994507C23.2924 0.994719 10.3435 9.2278 0.780922 24.1769C-0.31455 25.8896 -0.249811 28.5724 0.925676 30.1687C2.10131 31.7649 3.94237 31.6708 5.03799 29.9578C13.4875 16.7484 24.9247 9.47369 37.2436 9.47348C49.5614 9.47369 60.9986 16.7484 69.4481 29.9578C70.0212 30.8536 70.7982 31.3068 71.5772 31.3068C72.2876 31.3068 72.9998 30.9299 73.5604 30.1687C74.7359 28.5721 74.8008 25.8896 73.7052 24.1769Z"/>
    </g>
  </symbol>

  <symbol id="signal-up-4" viewBox="0 0 88 32">
    <g>
      <path d="M86.7281 23.8921C75.5841 8.80249 60.4938 0.492035 44.2351 0.491821C27.9778 0.492035 12.8875 8.80249 1.74335 23.8921C0.4667 25.6209 0.542146 28.3289 1.91204 29.9402C3.2821 31.5514 5.42764 31.4564 6.70446 29.7273C16.5514 16.3938 29.8801 9.0507 44.2363 9.05048C58.5913 9.0507 71.92 16.3938 81.7669 29.7273C82.4348 30.6316 83.3403 31.089 84.2482 31.089C85.0761 31.089 85.906 30.7086 86.5594 29.9402C87.9293 28.3286 88.0049 25.6209 86.7281 23.8921Z"/>
    </g>
  </symbol>

  <symbol id="signal-up-5" viewBox="0 0 105 31">
    <g>
      <path d="M103.716 23.6742C90.3722 8.58466 72.3027 0.274201 52.8341 0.273987C33.3672 0.274201 15.2977 8.58466 1.95344 23.6742C0.424754 25.4031 0.515094 28.111 2.15544 29.7224C3.79598 31.3336 6.36511 31.2386 7.894 29.5095C19.685 16.176 35.645 8.83286 52.8356 8.83265C70.0247 8.83286 85.9847 16.176 97.7757 29.5095C98.5754 30.4137 99.6597 30.8712 100.747 30.8712C101.738 30.8712 102.732 30.4908 103.514 29.7224C105.155 28.1108 105.245 25.4031 103.716 23.6742Z"/>
    </g>
  </symbol>

  <symbol id="signal-up-6" viewBox="0 0 118 31">
    <g>
      <path d="M116.629 23.4565C101.515 8.36695 81.0494 0.0564884 58.999 0.0562744C36.9505 0.0564884 16.4846 8.36695 1.37069 23.4565C-0.36073 25.1854 -0.258408 27.8933 1.59947 29.5047C3.45758 31.1159 6.36742 31.0209 8.09906 29.2918C21.4537 15.9583 39.5303 8.61515 59.0006 8.61493C78.4693 8.61515 96.5459 15.9583 109.901 29.2918C110.806 30.196 112.034 30.6535 113.266 30.6535C114.388 30.6535 115.514 30.2731 116.4 29.5047C118.258 27.8931 118.361 25.1854 116.629 23.4565Z"/>
    </g>
  </symbol>

  <symbol id="signal-up-7" viewBox="0 0 134 31">
    <g>
      <path d="M131.758 23.328C114.701 8.42551 91.6041 0.218107 66.7187 0.217896C41.8353 0.218107 18.7381 8.42551 1.68101 23.328C-0.273013 25.0354 -0.157536 27.7097 1.93921 29.3011C4.03623 30.8923 7.32018 30.7985 9.27447 29.0909C24.3462 15.9227 44.7469 8.67064 66.7205 8.67042C88.6923 8.67064 109.093 15.9227 124.165 29.0909C125.187 29.9839 126.573 30.4357 127.963 30.4357C129.23 30.4357 130.5 30.06 131.5 29.3011C133.597 27.7095 133.712 25.0354 131.758 23.328Z"/>
    </g>
  </symbol>

  <symbol id="signal-up-8" viewBox="0 0 148 31">
    <g>
      <path d="M146.448 23.1101C127.448 8.20768 101.72 0.000272344 73.999 6.10317e-05C46.2809 0.000272346 20.5523 8.20768 1.55201 23.1101C-0.624628 24.8175 -0.495995 27.4919 1.83963 29.0833C4.17554 30.6745 7.83362 30.5807 10.0105 28.8731C26.7993 15.7049 49.5242 8.4528 74.0011 8.45259C98.4759 8.4528 121.201 15.7049 137.99 28.8731C139.128 29.7661 140.672 30.2179 142.22 30.2179C143.631 30.2179 145.046 29.8421 146.16 29.0833C148.496 27.4917 148.625 24.8175 146.448 23.1101Z"/>
    </g>
  </symbol>

  <symbol id="signal-right-left-1" viewBox="0 0 17 61">
    <g>
      <path d="M9.34587 2.38926C3.95127 9.84264 0.600342 20.5263 0.600342 30.2718C0.600342 30.273 0.600342 30.275 0.600342 30.2761L0.600342 30.6889C0.600342 30.6906 0.600342 30.6915 0.600342 30.6932C0.600342 40.439 3.95148 51.1235 9.34587 58.5766C10.9727 60.8241 13.6226 60.841 15.2647 58.6141C16.0906 57.4938 16.5044 56.0192 16.5044 54.5443C16.5044 53.0871 16.1007 51.6294 15.2923 50.5125C11.4519 45.2067 8.97087 37.4276 8.97087 30.6926C8.97087 30.6918 8.97087 30.6906 8.97087 30.6898L8.97087 30.2753C8.97087 30.2741 8.97087 30.2738 8.97087 30.2727C8.97087 23.5386 11.4521 15.7589 15.2923 10.4536C16.9189 8.20617 16.9072 4.57829 15.2647 2.35173C13.6228 0.124599 10.9727 0.141501 9.34587 2.38926Z"/>
    </g>
  </symbol>

  <symbol id="signal-right-left-2" viewBox="0 0 24 86">
    <g>
      <path d="M16.4537 1.50419C6.19071 12.848 0.538887 27.5403 0.539307 42.8748C0.539516 58.2129 6.19155 72.9054 16.4541 84.2457C18.0979 86.0622 20.7526 86.0507 22.3837 84.22C24.0147 82.3894 24.0045 79.4329 22.3606 77.6165C13.6968 68.0429 8.92532 55.7047 8.92511 42.8748C8.92469 30.0482 13.6964 17.7101 22.361 8.13298C23.1868 7.2201 23.6003 6.01957 23.6003 4.81858C23.6003 3.62973 23.1948 2.43995 22.3833 1.52893C20.752 -0.301272 18.0973 -0.31248 16.4537 1.50419Z"/>
    </g>
  </symbol>

  <symbol id="signal-right-left-3" viewBox="0 0 31 105">
    <g>
      <path d="M23.4093 1.15372C8.46022 14.526 0.227141 32.6339 0.226929 52.1436C0.227141 71.6518 8.46022 89.7596 23.4093 103.132C25.122 104.664 27.8048 104.574 29.4012 102.93C30.9973 101.286 30.9032 98.7111 29.1902 97.179C15.9809 85.363 8.70611 69.3692 8.7059 52.1422C8.70611 34.9167 15.9809 18.9228 29.1902 7.10687C30.086 6.30551 30.5392 5.21891 30.5392 4.12947C30.5392 3.13607 30.1624 2.14022 29.4012 1.35614C27.8046 -0.287676 25.122 -0.378405 23.4093 1.15372Z"/>
    </g>
  </symbol>

  <symbol id="signal-right-left-4" viewBox="0 0 32 122">
    <g>
      <path d="M24.03 1.73124C8.94043 17.3151 0.629975 38.4177 0.629761 61.154C0.629975 83.8885 8.94043 104.991 24.03 120.575C25.7588 122.36 28.4668 122.255 30.0782 120.339C31.6894 118.423 31.5944 115.423 29.8653 113.637C16.5318 99.8673 9.18864 81.2284 9.18842 61.1524C9.18864 41.078 16.5318 22.4391 29.8653 8.66893C30.7695 7.73503 31.227 6.46874 31.227 5.19913C31.227 4.04142 30.8465 2.88088 30.0782 1.96714C28.4666 0.0514577 25.7588 -0.0542781 24.03 1.73124Z"/>
    </g>
  </symbol>

  <symbol id="signal-right-left-5" viewBox="0 0 31 146">
    <g>
      <path d="M23.4328 1.56047C8.34326 20.221 0.0328067 45.4897 0.0325928 72.7148C0.0328067 99.9376 8.34326 125.206 23.4328 143.867C25.1617 146.005 27.8696 145.879 29.481 143.585C31.0922 141.291 30.9972 137.698 29.2681 135.56C15.9346 119.071 8.59147 96.7523 8.59125 72.7128C8.59147 48.6753 15.9346 26.3565 29.2681 9.86784C30.1723 8.74957 30.6298 7.23327 30.6298 5.71301C30.6298 4.32675 30.2494 2.93707 29.481 1.84294C27.8694 -0.450943 25.1617 -0.577561 23.4328 1.56047Z"/>
    </g>
  </symbol>

  <symbol id="signal-right-left-6" viewBox="0 0 32 165">
    <g>
      <path d="M23.8357 1.89374C8.74616 23.0289 0.4357 51.6487 0.435486 82.4843C0.4357 113.317 8.74616 141.937 23.8357 163.073C25.5646 165.494 28.2725 165.351 29.8839 162.753C31.4951 160.154 31.4001 156.085 29.671 153.664C16.3375 134.988 8.99436 109.71 8.99415 82.482C8.99436 55.2568 16.3375 29.9782 29.671 11.3028C30.5752 10.0362 31.0327 8.31885 31.0327 6.59697C31.0327 5.02688 30.6523 3.45292 29.8839 2.21368C28.2723 -0.384407 25.5646 -0.527824 23.8357 1.89374Z"/>
    </g>
  </symbol>

  <symbol id="signal-right-left-7" viewBox="0 0 31 187">
    <g>
      <path d="M23.3278 2.924C8.42533 26.7766 0.217924 59.0761 0.217712 93.8762C0.217924 128.673 8.42533 160.973 23.3278 184.826C25.0352 187.558 27.7096 187.397 29.301 184.465C30.8921 181.532 30.7983 176.94 29.0907 174.207C15.9225 153.131 8.67045 124.602 8.67024 93.8737C8.67045 63.148 15.9225 34.6193 29.0907 13.5428C29.9837 12.1134 30.4355 10.1752 30.4355 8.23195C30.4355 6.45998 30.0598 4.68364 29.301 3.28506C27.7094 0.352937 25.0352 0.191103 23.3278 2.924Z"/>
    </g>
  </symbol>

  <symbol id="signal-right-left-8" viewBox="0 0 31 207">
    <g>
      <path d="M23.11 2.17036C8.20756 28.7403 0.000150273 64.7195 -6.10387e-05 103.484C0.000150276 142.246 8.20756 178.225 23.11 204.795C24.8174 207.839 27.4918 207.659 29.0832 204.393C30.6744 201.126 30.5806 196.011 28.8729 192.967C15.7047 169.489 8.45268 137.71 8.45247 103.481C8.45268 69.2554 15.7047 37.4765 28.8729 13.9989C29.7659 12.4066 30.2177 10.2477 30.2177 8.083C30.2177 6.10915 29.842 4.13046 29.0832 2.57256C27.4916 -0.693608 24.8174 -0.873891 23.11 2.17036Z"/>
    </g>
  </symbol>
  
  <symbol id="signal-down-8" viewBox="0 0 207 31">
    <g>
      <path d="M2.17036 7.39464C28.7403 22.2971 64.7195 30.5045 103.484 30.5047C142.246 30.5045 178.225 22.2971 204.795 7.39464C207.839 5.68723 207.659 3.01285 204.393 1.42145C201.126 -0.169737 196.011 -0.075915 192.967 1.63171C169.489 14.7999 137.71 22.052 103.481 22.0522C69.2554 22.052 37.4765 14.7999 13.9989 1.63171C12.4066 0.738696 10.2477 0.28691 8.083 0.28691C6.10915 0.28691 4.13046 0.662625 2.57256 1.42145C-0.693608 3.01306 -0.873891 5.68723 2.17036 7.39464Z"/>
    </g>
  </symbol>

  <symbol id="signal-down-7" viewBox="0 0 187 31">
    <g>
      <path d="M2.92403 7.17684C26.7766 22.0793 59.0761 30.2867 93.8763 30.2869C128.674 30.2867 160.973 22.0793 184.826 7.17684C187.558 5.46943 187.397 2.79505 184.465 1.20365C181.532 -0.387541 176.94 -0.293719 174.207 1.4139C153.131 14.5821 124.602 21.8342 93.8737 21.8344C63.1481 21.8342 34.6193 14.5821 13.5428 1.4139C12.1134 0.520892 10.1752 0.0691063 8.23198 0.0691063C6.46001 0.0691063 4.68367 0.444821 3.2851 1.20365C0.352968 2.79526 0.191133 5.46943 2.92403 7.17684Z"/>
    </g>
  </symbol>

  <symbol id="signal-down-6" viewBox="0 0 165 32">
    <g>
      <path d="M1.89368 7.66886C23.0289 22.7584 51.6487 31.0689 82.4842 31.0691C113.317 31.0689 141.937 22.7584 163.073 7.66886C165.494 5.94001 165.351 3.23205 162.753 1.62067C160.154 0.00950011 156.085 0.104501 153.663 1.83356C134.988 15.1671 109.709 22.5102 82.482 22.5104C55.2567 22.5102 29.9781 15.1671 11.3027 1.83356C10.0362 0.929341 8.31879 0.471881 6.59691 0.471881C5.02682 0.471881 3.45286 0.852315 2.21361 1.62067C-0.384468 3.23226 -0.527885 5.94001 1.89368 7.66886Z"/>
    </g>
  </symbol>

  <symbol id="signal-down-5" viewBox="0 0 146 32">
    <g>
      <path d="M1.56053 8.07163C20.221 23.1612 45.4898 31.4716 72.7149 31.4719C99.9377 31.4716 125.206 23.1612 143.867 8.07163C146.005 6.34278 145.879 3.63482 143.585 2.02344C141.291 0.412271 137.698 0.507272 135.56 2.23633C119.071 15.5699 96.7524 22.913 72.7129 22.9132C48.6754 22.913 26.3566 15.5699 9.8679 2.23633C8.74963 1.33211 7.23333 0.874652 5.71307 0.874652C4.32681 0.874652 2.93713 1.25509 1.843 2.02344C-0.450882 3.63503 -0.5775 6.34278 1.56053 8.07163Z"/>
    </g>
  </symbol>

  <symbol id="signal-down-4" viewBox="0 0 122 31">
    <g>
      <path d="M1.73124 7.4744C17.3151 22.564 38.4177 30.8744 61.154 30.8746C83.8885 30.8744 104.991 22.564 120.575 7.4744C122.36 5.74555 122.255 3.03759 120.339 1.42621C118.423 -0.184958 115.423 -0.0899586 113.637 1.63911C99.8673 14.9726 81.2284 22.3158 61.1524 22.316C41.078 22.3158 22.4391 14.9726 8.66893 1.63911C7.73503 0.734883 6.46874 0.277421 5.19913 0.277421C4.04142 0.277421 2.88088 0.657857 1.96714 1.42621C0.0514577 3.03781 -0.0542781 5.74555 1.73124 7.4744Z"/>
    </g>
  </symbol>

  <symbol id="signal-down-3" viewBox="0 0 105 32">
    <g>
      <path d="M1.15372 8.09506C14.526 23.0441 32.6339 31.2772 52.1436 31.2774C71.6518 31.2772 89.7596 23.0441 103.132 8.09506C104.664 6.3823 104.574 3.69956 102.93 2.10318C101.286 0.507017 98.7111 0.601131 97.179 2.3141C85.363 15.5235 69.3692 22.7982 52.1422 22.7984C34.9167 22.7982 18.9228 15.5235 7.10687 2.3141C6.30551 1.41829 5.21891 0.965091 4.12947 0.965091C3.13607 0.965091 2.14022 1.34198 1.35614 2.10318C-0.287676 3.69977 -0.378405 6.3823 1.15372 8.09506Z"/>
    </g>
  </symbol>

  <symbol id="signal-down-2" viewBox="0 0 86 24">
    <g>
      <path d="M1.50419 8.05073C12.848 18.3137 27.5403 23.9655 42.8748 23.9651C58.2129 23.9649 72.9054 18.3128 84.2457 8.05031C86.0622 6.40648 86.0507 3.75175 84.22 2.12071C82.3894 0.489672 79.4329 0.499941 77.6165 2.14377C68.0429 10.8076 55.7047 15.5791 42.8748 15.5793C30.0482 15.5797 17.7101 10.808 8.13298 2.14335C7.2201 1.31756 6.01957 0.904138 4.81858 0.904138C3.62973 0.904138 2.43995 1.30959 1.52893 2.12113C-0.301272 3.75237 -0.31248 6.40711 1.50419 8.05073Z"/>
    </g>
  </symbol>

  <symbol id="signal-down-1" viewBox="0 0 61 16">
    <g>
      <path d="M2.38926 7.15858C9.84264 12.5532 20.5263 15.9041 30.2718 15.9041C30.273 15.9041 30.275 15.9041 30.2761 15.9041L30.6889 15.9041C30.6906 15.9041 30.6915 15.9041 30.6932 15.9041C40.439 15.9041 51.1235 12.553 58.5766 7.15858C60.8241 5.53177 60.841 2.88187 58.6141 1.23978C57.4938 0.413817 56.0192 0.000101067 54.5443 0.000101067C53.0871 0.000101067 51.6294 0.403768 50.5125 1.21215C45.2067 5.05255 37.4276 7.53358 30.6926 7.53358C30.6918 7.53358 30.6906 7.53358 30.6898 7.53358L30.2753 7.53358C30.2741 7.53358 30.2738 7.53358 30.2727 7.53358C23.5386 7.53358 15.7589 5.05234 10.4536 1.21215C8.20617 -0.414452 4.57829 -0.402729 2.35173 1.23978C0.124599 2.88166 0.141501 5.53177 2.38926 7.15858Z"/>
    </g>
  </symbol>
</svg>