<svg width="170" height="121" viewBox="0 0 170 121" fill="none" xmlns="http://www.w3.org/2000/svg">
<path fill-rule="evenodd" clip-rule="evenodd" d="M100.667 0.582473C99.1783 1.47472 98.3667 2.79763 98.3643 4.33761C98.3601 6.69696 99.9183 8.46505 102.439 8.96102C103.713 9.21185 103.35 8.3543 106.491 18.5413L108.294 24.3889L106.958 25.4862L105.622 26.5832L96.4381 23.9399L87.2542 21.2966V20.0049C87.2542 15.1011 83.1909 11.3481 77.8822 11.3481C70.7261 11.3481 66.3726 17.992 69.7896 23.6986C70.7261 25.2625 73.3402 27.4326 74.2875 27.4326C74.9328 27.4326 74.9029 27.7187 73.7168 32.9031C73.1441 35.4063 72.6755 37.5423 72.6755 37.6492C72.6755 37.7565 72.1364 37.8442 71.4776 37.8442C67.9933 37.8442 64.1407 39.2754 61.7324 41.4643C55.3313 47.2822 57.145 56.9742 65.3191 60.6319C67.4615 61.5904 67.878 61.6648 71.1062 61.6648C74.2524 61.6648 74.7832 61.5762 76.6628 60.7373C82.3075 58.2183 85.2764 52.4385 83.746 46.9478C83.487 46.019 83.2721 45.1526 83.2687 45.0232C83.2652 44.8939 88.4639 42.0988 94.8216 38.8125L106.38 32.8368L107.613 33.5969C109.234 34.5967 110.942 34.8608 112.697 34.3828C115.664 33.5748 117.533 30.6772 116.763 28.0778C116.088 25.8001 113.775 23.962 111.583 23.962C110.67 23.962 110.492 23.8118 110.179 22.7789C109.982 22.1283 108.905 18.6562 107.787 15.0632L105.755 8.53036L106.75 7.66366C109.153 5.57092 108.578 1.83282 105.641 0.452169C104.253 -0.200295 101.869 -0.137825 100.667 0.582473ZM85.5416 24.4015C84.1687 26.4207 80.9569 28.0636 78.3827 28.0636C77.0495 28.0636 77.1932 27.7604 75.9904 33.1116C75.5027 35.2807 75.0317 37.3426 74.9442 37.6937C74.8151 38.2096 75.1296 38.4762 76.5826 39.0819C77.5715 39.4943 79.1818 40.5203 80.161 41.3621C81.1398 42.2036 82.0309 42.8923 82.1409 42.8923C82.3054 42.8923 104.864 31.3177 105.252 31.0344C105.318 30.9855 105.27 30.4037 105.145 29.7411L104.917 28.5368L95.8251 25.9304C90.8246 24.4968 86.6291 23.3256 86.5017 23.3275C86.3739 23.3294 85.9418 23.8128 85.5416 24.4015Z" fill="black"/>
<path d="M17.1996 111.582C16.7087 112.416 16.0987 113.011 15.5433 113.813C15.3995 114.021 14.9979 114.341 14.8243 114.341C14.7152 114.341 14.6061 114.251 14.6061 114.102C14.6061 113.218 14.9185 112.416 15.1913 111.591C15.3351 111.177 15.464 110.771 15.464 110.334C15.464 109.847 15.0524 109.45 14.4723 109.45C13.6094 109.45 12.9797 110.41 12.7268 111.005C12.5185 111.492 12.3697 112.137 12.097 112.524C12.0425 112.583 11.9532 112.632 11.8887 112.691C11.5615 112.335 11.7896 111.253 11.3334 111.253C10.8524 111.253 10.5152 112.218 10.3614 112.218C10.1532 112.218 10.173 111.253 10.1879 111.285C10.1333 110.888 9.71681 110.501 9.26061 110.433C9.20606 110.433 9.06226 110.523 9.06226 110.573C9.06226 110.748 9.10688 110.92 9.1168 111.086C9.12672 111.195 9.18127 112.285 9.24573 112.524C9.33499 112.862 9.62755 113.484 10.0986 113.484C10.2524 113.484 10.3367 113.367 10.4259 113.088C10.5548 112.623 10.7631 111.938 11.2243 111.663C11.254 111.731 11.3433 111.799 11.3532 111.871C11.4077 112.308 11.3532 113.029 11.8441 113.029C12.454 113.029 12.7615 111.83 12.9995 111.276C13.2524 110.69 13.6541 110.135 14.3334 109.829C14.3532 109.815 14.388 109.806 14.4078 109.806C14.4822 109.806 14.5367 109.856 14.5367 109.915C14.5367 110.185 14.3731 110.532 14.3086 110.807C14.1251 111.582 13.897 112.357 13.7532 113.137C13.7334 113.227 13.7334 113.318 13.7334 113.408C13.7334 113.994 14.2342 114.697 14.8442 114.697C15.3896 114.697 15.7814 114.093 16.1086 113.583C16.4607 113.061 17.2244 111.947 17.264 111.929C17.3533 111.681 17.4078 111.573 17.2244 111.573C17.2095 111.573 17.2095 111.573 17.1996 111.582ZM23.7253 111.69C23.7005 111.65 23.6708 111.632 23.636 111.632C23.398 111.632 22.4608 112.988 21.9253 113.696C21.717 113.971 21.2608 114.449 20.8889 114.449C20.5914 114.449 20.4971 113.953 20.4971 113.683C20.4971 113.07 20.7996 112.443 20.9881 111.83C21.0178 111.722 21.0426 111.623 21.0426 111.533C21.0426 111.253 20.6707 110.92 20.1897 110.92C20.0161 110.92 19.8426 110.978 19.6889 111.104C19.1335 111.582 18.6079 112.078 18.0426 112.542C17.8789 112.673 17.745 112.889 17.4971 112.889C17.2987 112.889 17.2442 112.344 17.2442 112.227C17.2442 111.415 18.3698 109.906 19.0541 109.906C19.4459 109.906 19.5996 110.212 19.5996 110.473C19.5996 110.532 19.5897 110.6 19.5897 110.658C19.5897 110.69 19.679 110.807 19.7434 110.807C19.9071 110.807 19.9616 110.523 19.9616 110.383C19.9616 110.005 19.5004 109.599 19.0789 109.599C18.1517 109.599 17.2541 110.897 16.7979 111.763C16.6888 111.97 16.6442 112.227 16.6442 112.457C16.6442 112.921 16.8822 113.286 17.4971 113.286C18.0971 113.286 18.6079 112.533 19.1087 112.06C19.188 111.988 19.4608 111.731 19.5897 111.731C19.6095 111.731 19.7087 111.781 19.7087 111.799C19.5996 112.276 19.4806 112.79 19.4806 113.277C19.4806 114.061 19.8723 115.003 20.7798 115.003C21.2162 115.003 21.6525 114.746 21.9699 114.341C22.5005 113.656 23.036 112.961 23.5517 112.258C23.636 112.137 23.7699 112.019 23.7798 111.862C23.7798 111.812 23.755 111.749 23.7253 111.69ZM28.5155 111.632C28.3717 111.862 27.0625 113.327 26.8989 113.457C26.7799 113.556 26.6609 113.597 26.5518 113.597C26.1997 113.597 25.7981 112.862 25.5005 112.443C25.446 112.366 25.4162 112.317 25.4162 112.276C25.4162 112.227 25.4708 112.195 25.5898 112.168C26.2543 111.961 26.9435 111.303 26.9435 110.681C26.9435 110.41 26.7253 110.194 26.4179 110.194C25.8625 110.194 24.9799 111.267 24.6823 111.898C24.598 112.078 24.5732 112.276 24.4096 112.416C24.1815 112.11 23.9633 111.343 23.9633 111.195C23.9633 111.037 24.0278 110.888 24.1369 110.73C24.6179 110.005 24.8807 109.252 25.208 108.459C25.3369 108.121 25.3914 107.796 25.3914 107.467C25.3914 106.606 25.1336 106.187 24.4642 106.187C24.3352 106.187 24.1716 106.21 24.0079 106.237C23.636 106.318 23.1154 106.989 23.0459 107.427C22.9616 107.963 22.9071 108.499 22.9071 109.036C22.9071 109.568 22.9716 110.095 23.1154 110.631C23.1798 110.897 23.5369 112.119 23.6807 112.366C23.9534 112.853 24.1369 113.327 24.5088 113.327C24.5881 113.327 24.717 113.349 24.717 113.151C24.717 113.07 24.6823 113.002 24.6823 112.93C24.6823 112.781 24.7617 112.506 24.9005 112.506C25.0245 112.506 25.3716 112.921 25.5154 113.079C25.8278 113.426 26.1253 113.813 26.5716 113.813C27.008 113.813 27.2063 113.507 27.4989 113.187C27.8361 112.772 28.6444 111.848 28.6444 111.681C28.6444 111.591 28.6245 111.564 28.5998 111.564C28.5799 111.564 28.5353 111.614 28.5155 111.632ZM23.8245 110.51C23.7005 110.302 23.636 110.014 23.636 109.766C23.636 109.103 23.646 108.441 23.6708 107.765C23.6708 107.219 24.0972 106.435 24.5435 106.435C24.9352 106.435 25.1881 107.03 25.1881 107.427C25.1881 108.4 24.479 109.432 23.9633 110.383C23.9435 110.433 23.879 110.46 23.8245 110.51ZM25.0642 111.979C25.0542 111.979 25.0542 111.947 25.0542 111.92C25.0542 111.433 26.1997 110.374 26.5171 110.374C26.6708 110.374 26.7006 110.721 26.7006 110.681C26.7006 111.352 25.8724 111.88 25.3518 112.078C25.3369 112.078 25.327 112.087 25.327 112.087C25.2526 112.087 25.1187 111.997 25.0642 111.979ZM31.2725 111.731C31.2428 111.713 31.2081 111.681 31.1733 111.681C31.0246 111.681 30.4791 112.227 30.1717 112.475C29.8246 112.754 29.289 113.218 28.9915 113.218C28.7188 113.218 28.6245 112.93 28.6245 112.466C28.6245 111.929 28.7634 111.352 28.7634 110.821C28.7634 110.609 28.6345 110.253 28.2526 110.253C27.8708 110.253 27.8907 111.799 27.8907 111.871C27.8907 112.565 28.2725 113.516 28.937 113.516C29.6064 113.516 30.5733 112.425 31.2824 111.781C31.2824 111.763 31.2824 111.731 31.2725 111.731ZM28.57 109.491C28.5799 109.518 28.6444 109.531 28.6989 109.549C28.8824 109.459 28.9617 109.383 28.9617 109.243C28.9617 109.112 28.8527 108.837 28.6543 108.837C28.5006 108.837 28.4708 108.923 28.4708 108.995C28.4708 109.112 28.5254 109.333 28.57 109.491ZM37.709 112.037C37.2181 112.763 36.6974 113.475 36.1718 114.178C36.0528 114.341 35.7255 114.566 35.5916 114.566C35.2346 114.566 35.2346 113.953 35.2346 113.633C35.2346 113.128 35.3883 112.493 35.4627 112.01C35.4825 111.65 35.5172 111.325 35.5172 110.996C35.5172 110.334 35.3635 109.716 34.7189 109.716C34.1635 109.716 33.4643 110.325 33.1271 110.83C32.78 111.343 32.4626 111.898 32.0709 112.385C32.0362 112.344 32.0064 112.317 31.9915 112.267C31.9072 111.74 31.7982 111.217 31.7734 110.69C31.7535 110.144 31.4461 109.788 30.9452 109.549C30.8907 109.518 30.8064 109.5 30.737 109.5C30.5981 109.5 30.5188 109.617 30.5188 109.739C30.5188 109.757 30.5188 109.779 30.5337 109.788C30.7271 110.275 30.737 110.78 30.7915 111.285C30.8461 112.087 31.2428 113.565 31.7734 113.565C32.1155 113.565 32.2246 113.286 32.2643 113.079C32.4081 112.326 32.9089 111.713 33.3701 111.104C33.6527 110.739 34.2428 110.063 34.7189 110.063C34.8726 110.063 34.9271 110.194 34.9271 110.334C34.9271 110.51 34.8527 110.672 34.818 110.839C34.6643 111.573 34.4709 112.294 34.4709 113.038C34.4709 113.854 34.5007 115.035 35.6263 115.035C36.0726 115.035 36.2065 114.764 36.5982 114.169C36.99 113.583 37.3619 112.961 37.7635 112.376C37.8082 112.317 38.1156 111.862 38.1454 111.83C38.1255 111.79 38.1156 111.781 38.0809 111.781C38.0611 111.781 38.0363 111.79 38.0164 111.79C38.0065 111.79 37.9817 111.781 37.9718 111.749C37.9619 111.799 37.7338 111.997 37.709 112.037ZM43.6248 111.74C42.9355 112.227 42.4099 112.294 41.7008 112.772C41.6363 112.813 41.5719 112.831 41.5173 112.831C41.4181 112.831 41.3438 112.763 41.3438 112.641C41.3438 112.556 41.3537 112.475 41.3537 112.394C41.3537 111.772 40.9619 111.235 40.8628 110.631C40.7884 110.203 40.471 110.027 39.9702 110.027C39.2363 110.027 38.6462 110.334 38.2545 110.857C38.071 111.104 37.5701 111.911 37.5701 112.466C37.5701 112.804 37.8181 113.07 38.1007 113.07C38.4726 113.07 39.4545 112.344 40.0892 111.938C40.1338 111.92 40.1636 111.911 40.1983 111.911C40.4363 111.911 40.3272 112.831 40.4264 113.2C40.4462 113.299 40.471 113.399 40.471 113.484C40.471 113.822 40.2826 114.111 40.0346 114.39C39.5536 114.913 39.1074 115.458 38.6908 116.026C37.9817 116.995 37.3817 117.897 37.3817 119.208C37.3817 119.903 37.9272 120.466 38.6363 120.466C38.7454 120.466 38.8545 120.457 38.9636 120.416C40.9173 119.781 41.4429 118.762 41.4429 116.175C41.4429 115.44 41.4181 114.706 41.4181 113.98C41.4181 113.061 42.2165 112.772 43.1339 112.317C43.7735 111.997 43.7537 111.641 43.6248 111.74ZM40.3272 118.393C40.0892 119.087 39.5983 119.632 38.8247 119.912C38.671 119.97 38.5272 120.002 38.4082 120.002C37.9718 120.002 37.7735 119.664 37.7735 119.06C37.7735 118.861 37.8082 118.672 37.8726 118.492C38.4181 117.077 39.2363 115.778 40.228 114.575C40.2727 114.525 40.3818 114.516 40.471 114.489C40.5355 114.674 40.5454 114.836 40.5454 115.044C40.5454 115.269 40.5454 115.508 40.5454 115.747C40.59 116.044 40.6099 116.351 40.6099 116.648C40.6099 117.234 40.5256 117.82 40.3272 118.393ZM40.4809 111.285C39.7371 111.74 38.9735 112.186 38.2098 112.623C38.1999 112.632 38.1801 112.632 38.1702 112.632C38.1007 112.632 37.9916 112.592 37.9916 112.466C38.2098 111.564 38.8644 110.253 40.0892 110.253C40.4066 110.253 40.6347 110.482 40.6347 110.956C40.6347 111.077 40.5702 111.235 40.4809 111.285ZM51.8365 111.74C51.8365 111.731 51.6976 111.632 51.653 111.632C51.6828 111.632 49.8084 113.994 49.3174 113.994C48.9703 113.994 48.7621 113.498 48.7621 112.988C48.7621 112.763 48.8067 112.524 48.9009 112.276C49.0794 111.83 49.1885 111.343 49.3274 110.879C49.3521 110.83 49.3521 110.78 49.3521 110.73C49.3521 110.203 48.534 110.113 48.0976 110.045C47.2893 109.928 47.8248 109.59 47.443 108.964C47.3438 108.806 47.1802 108.725 47.0265 108.725C46.6992 108.725 46.4265 109.121 46.4265 109.419C46.4265 109.68 46.5901 109.928 46.9174 110.104C47.1554 110.244 47.2348 110.284 47.2348 110.401C47.2348 110.64 46.843 111.452 46.4364 111.947C46.3819 112.046 46.5703 112.11 46.6248 112.069C47.1703 111.582 47.3885 110.293 47.7802 110.302C48.162 110.311 48.4645 110.473 48.4645 110.622C48.4645 110.672 48.4546 110.739 48.4348 110.821C48.2364 111.393 47.8645 112.195 47.8645 112.705C47.8645 113.367 48.4992 114.327 49.3819 114.327C49.61 114.327 49.7885 114.251 49.9522 114.061C50.3885 113.534 51.8365 111.92 51.8365 111.74ZM47.3191 109.748C47.2893 109.806 47.2447 109.906 47.21 109.906C46.8976 109.879 46.8182 109.649 46.8182 109.482C46.8182 109.32 46.9273 109.036 47.081 109.036C47.2447 109.036 47.3191 109.509 47.3439 109.599C47.3339 109.707 47.3339 109.73 47.3191 109.748ZM51.4249 111.393C51.3009 112.128 51.8613 113.565 52.9175 113.484C53.9737 113.385 54.182 111.97 54.1522 111.253C54.1175 110.532 53.9638 109.342 52.9621 109.252C51.7274 109.153 51.5092 110.609 51.4249 111.393ZM52.0249 111.343C52.0795 110.789 52.1191 109.558 53.0067 109.518C53.8448 109.491 53.9638 110.897 53.934 111.424C53.8795 111.871 53.7159 113.286 52.7092 113.169C51.9803 113.079 52.0448 111.821 52.0249 111.343ZM55.5456 110.162C55.5159 110.343 55.4713 110.658 55.4713 111.068C55.4713 111.483 55.5159 111.979 55.6547 112.484C55.8184 112.912 56.0713 113.308 56.582 113.498C56.7159 113.547 56.825 113.574 56.9192 113.574C57.0729 113.574 57.2167 113.507 57.3556 113.367C57.7176 112.979 57.9457 112.533 58.0002 112.019C58.0796 111.533 57.8812 111.104 57.5986 110.699C57.3556 110.352 56.9638 110.212 56.5175 110.176C56.2894 110.162 56.2647 110.144 56.3192 109.937C56.5076 109.094 56.701 108.251 56.8895 107.4C56.9539 107.179 56.9738 107.003 56.9738 106.854C56.9738 106.467 56.7903 106.309 56.4977 106.309C56.3638 106.318 56.2448 106.494 56.1556 107.012C56.1258 107.3 56.0713 107.607 56.0068 107.882C55.863 108.639 55.6795 109.392 55.5456 110.162ZM56.1456 111.415C56.1556 111.168 56.1704 110.929 56.2002 110.658C56.2101 110.523 56.3192 110.433 56.4828 110.41C56.7357 110.401 56.944 110.46 57.1275 110.631C57.4795 110.938 57.6184 111.285 57.6184 111.663C57.6184 111.812 57.5986 111.97 57.5539 112.128C57.4647 112.475 57.3457 112.813 57.1076 113.088C56.8994 113.318 56.7704 113.308 56.5919 113.101C56.3192 112.763 56.2547 112.366 56.2002 111.961C56.1556 111.781 56.1456 111.415 56.1456 111.415ZM59.2449 111.393C59.1259 112.128 59.6812 113.565 60.7375 113.484C61.7986 113.385 62.0069 111.97 61.9722 111.253C61.9375 110.532 61.7887 109.342 60.7821 109.252C59.5523 109.153 59.3341 110.609 59.2449 111.393ZM59.8449 111.343C59.8994 110.789 59.9441 109.558 60.8267 109.518C61.6647 109.491 61.7887 110.897 61.754 111.424C61.6994 111.871 61.5358 113.286 60.5341 113.169C59.8002 113.079 59.8647 111.821 59.8449 111.343ZM67.3276 111.88C66.683 112.466 66.445 112.763 65.7904 113.349C65.5921 113.516 65.2797 113.705 65.0069 113.705C64.273 113.705 64.2532 112.605 64.2532 112.227C64.2532 111.722 64.2631 111.195 64.3276 110.681C64.4069 110.014 64.4367 110.014 65.1557 109.937C65.3739 109.897 65.6069 109.897 65.8351 109.897C65.9888 109.897 66.1276 109.897 66.2813 109.897C66.4648 109.897 66.4995 109.888 66.6433 109.779C66.5888 109.739 66.5442 109.658 66.4896 109.658C65.9541 109.631 65.4086 109.608 64.8631 109.59C64.645 109.581 64.5557 109.54 64.5557 109.383C64.5557 109.171 64.6797 108.103 64.7987 108.103C64.8631 107.724 64.8978 107.336 64.9821 106.962C64.9921 106.89 65.0069 106.823 65.0069 106.755C65.0069 106.476 64.7342 105.998 64.2978 105.998C64.0102 105.998 63.9458 106.557 63.8813 106.953C63.7623 107.715 63.6185 108.477 63.4995 109.234C63.3904 109.847 63.3458 109.599 62.3986 109.797C62.354 109.815 62.3094 109.865 62.3094 109.915C62.3094 110.275 63.3358 109.964 63.3358 110.532C63.3358 110.649 63.2912 110.83 63.2912 111.019C63.2912 112.096 63.7375 114.003 65.0069 114.003C65.9441 114.003 66.9706 112.641 67.5458 111.979C67.5905 111.911 67.4714 111.713 67.3276 111.88ZM68.5921 109.5C69.926 109.468 69.4004 110.87 69.4252 110.906C69.4252 110.969 69.4004 111.068 69.5343 111.068C69.6434 111.068 69.6632 111.005 69.683 110.906C69.7078 110.789 70.4269 109.311 68.726 109.135C67.7194 109.036 66.5442 110.334 67.4466 111.402C67.6797 111.681 69.0285 112.79 69.207 113.128C69.3806 113.426 69.6632 114.278 69.0285 114.241C68.6814 114.241 68.5525 113.507 68.5624 113.385C68.5624 113.358 68.5524 113.308 68.5177 113.308C68.483 113.286 68.4434 113.308 68.4086 113.308C68.1905 113.565 68.3739 114.539 69.0285 114.557C69.5888 114.575 70.2979 114.079 69.9558 112.889C69.7723 112.245 68.4186 111.285 68.1359 110.978C67.3376 110.077 68.2004 109.509 68.5921 109.5ZM76.0104 110.482C75.7079 110.433 75.4104 110.424 75.1178 110.424C74.7459 110.424 73.9823 110.401 73.9823 110.55C73.9823 110.658 74.2649 110.739 74.3988 110.739C75.0187 110.739 75.6435 110.721 76.2832 110.721C76.3526 110.721 76.6104 110.721 76.6104 110.681C76.6104 110.609 76.3278 110.559 76.0104 110.482ZM88.4619 111.582C87.9709 112.416 87.356 113.011 86.8007 113.813C86.6618 114.021 86.2552 114.341 86.0816 114.341C85.9726 114.341 85.8635 114.251 85.8635 114.102C85.8635 113.218 86.1808 112.416 86.4536 111.591C86.5924 111.177 86.7263 110.771 86.7263 110.334C86.7263 109.847 86.3098 109.45 85.7345 109.45C84.8717 109.45 84.237 110.41 83.9891 111.005C83.7808 111.492 83.6271 112.137 83.3543 112.524C83.2998 112.583 83.2105 112.632 83.1461 112.691C82.8188 112.335 83.0469 111.253 82.5907 111.253C82.1097 111.253 81.7725 112.218 81.6188 112.218C81.4105 112.218 81.4353 111.253 81.4452 111.285C81.3907 110.888 80.9741 110.501 80.5179 110.433C80.4634 110.433 80.3196 110.523 80.3196 110.573C80.3196 110.748 80.3642 110.92 80.3741 111.086C80.389 111.195 80.4435 112.285 80.508 112.524C80.5923 112.862 80.8898 113.484 81.356 113.484C81.5097 113.484 81.5989 113.367 81.6832 113.088C81.8171 112.623 82.0254 111.938 82.4816 111.663C82.5163 111.731 82.6006 111.799 82.6105 111.871C82.6651 112.308 82.6105 113.029 83.1014 113.029C83.7163 113.029 84.0188 111.83 84.2618 111.276C84.5097 110.69 84.9163 110.135 85.5907 109.829C85.6106 109.815 85.6453 109.806 85.6651 109.806C85.7445 109.806 85.799 109.856 85.799 109.915C85.799 110.185 85.6354 110.532 85.5709 110.807C85.3825 111.582 85.1544 112.357 85.0106 113.137C84.9907 113.227 84.9907 113.318 84.9907 113.408C84.9907 113.994 85.4916 114.697 86.1015 114.697C86.647 114.697 87.0437 114.093 87.3709 113.583C87.718 113.061 88.4817 111.947 88.5263 111.929C88.6106 111.681 88.6652 111.573 88.4817 111.573C88.4718 111.573 88.4718 111.573 88.4619 111.582ZM94.9826 111.69C94.9628 111.65 94.9281 111.632 94.8983 111.632C94.6553 111.632 93.7181 112.988 93.1826 113.696C92.9743 113.971 92.5181 114.449 92.1462 114.449C91.8536 114.449 91.7545 113.953 91.7545 113.683C91.7545 113.07 92.0619 112.443 92.2454 111.83C92.2801 111.722 92.2999 111.623 92.2999 111.533C92.2999 111.253 91.928 110.92 91.447 110.92C91.2735 110.92 91.0999 110.978 90.9462 111.104C90.3908 111.582 89.8652 112.078 89.2999 112.542C89.1362 112.673 89.0073 112.889 88.7544 112.889C88.5561 112.889 88.5015 112.344 88.5015 112.227C88.5015 111.415 89.6272 109.906 90.3164 109.906C90.7082 109.906 90.8619 110.212 90.8619 110.473C90.8619 110.532 90.847 110.6 90.847 110.658C90.847 110.69 90.9363 110.807 91.0007 110.807C91.1644 110.807 91.2189 110.523 91.2189 110.383C91.2189 110.005 90.7627 109.599 90.3363 109.599C89.409 109.599 88.5164 110.897 88.0552 111.763C87.9461 111.97 87.9015 112.227 87.9015 112.457C87.9015 112.921 88.1445 113.286 88.7544 113.286C89.3544 113.286 89.8652 112.533 90.371 112.06C90.4454 111.988 90.7181 111.731 90.847 111.731C90.8718 111.731 90.971 111.781 90.971 111.799C90.8619 112.276 90.7379 112.79 90.7379 113.277C90.7379 114.061 91.1346 115.003 92.0371 115.003C92.4735 115.003 92.9099 114.746 93.2272 114.341C93.7628 113.656 94.2983 112.961 94.8091 112.258C94.8983 112.137 95.0272 112.019 95.0372 111.862C95.0372 111.812 95.0173 111.749 94.9826 111.69ZM99.7728 111.632C99.629 111.862 98.3199 113.327 98.1562 113.457C98.0372 113.556 97.9182 113.597 97.8091 113.597C97.462 113.597 97.0554 112.862 96.7628 112.443C96.7083 112.366 96.6736 112.317 96.6736 112.276C96.6736 112.227 96.7281 112.195 96.8471 112.168C97.5165 111.961 98.2009 111.303 98.2009 110.681C98.2009 110.41 97.9827 110.194 97.6802 110.194C97.1198 110.194 96.2372 111.267 95.9446 111.898C95.8554 112.078 95.8355 112.276 95.6719 112.416C95.4438 112.11 95.2256 111.343 95.2256 111.195C95.2256 111.037 95.2901 110.888 95.3992 110.73C95.8802 110.005 96.138 109.252 96.4653 108.459C96.5992 108.121 96.6537 107.796 96.6537 107.467C96.6537 106.606 96.3909 106.187 95.7264 106.187C95.5925 106.187 95.4289 106.21 95.2653 106.237C94.8983 106.318 94.3727 106.989 94.3082 107.427C94.219 107.963 94.1644 108.499 94.1644 109.036C94.1644 109.568 94.2289 110.095 94.3727 110.631C94.4372 110.897 94.7991 112.119 94.938 112.366C95.2107 112.853 95.3992 113.327 95.7711 113.327C95.8454 113.327 95.9744 113.349 95.9744 113.151C95.9744 113.07 95.9446 113.002 95.9446 112.93C95.9446 112.781 96.019 112.506 96.1628 112.506C96.2818 112.506 96.6289 112.921 96.7727 113.079C97.0901 113.426 97.3827 113.813 97.8289 113.813C98.2653 113.813 98.4637 113.507 98.7562 113.187C99.0984 112.772 99.9017 111.848 99.9017 111.681C99.9017 111.591 99.8819 111.564 99.862 111.564C99.8372 111.564 99.7926 111.614 99.7728 111.632ZM95.0818 110.51C94.9628 110.302 94.8983 110.014 94.8983 109.766C94.8983 109.103 94.9082 108.441 94.9281 107.765C94.9281 107.219 95.3545 106.435 95.8008 106.435C96.1926 106.435 96.4455 107.03 96.4455 107.427C96.4455 108.4 95.7363 109.432 95.2256 110.383C95.2008 110.433 95.1363 110.46 95.0818 110.51ZM96.3264 111.979C96.3165 111.979 96.3165 111.947 96.3165 111.92C96.3165 111.433 97.462 110.374 97.7744 110.374C97.9281 110.374 97.9628 110.721 97.9628 110.681C97.9628 111.352 97.1347 111.88 96.6091 112.078C96.5992 112.078 96.5893 112.087 96.5893 112.087C96.5099 112.087 96.381 111.997 96.3264 111.979ZM102.535 111.731C102.5 111.713 102.465 111.681 102.436 111.681C102.282 111.681 101.736 112.227 101.429 112.475C101.082 112.754 100.546 113.218 100.254 113.218C99.981 113.218 99.8819 112.93 99.8819 112.466C99.8819 111.929 100.026 111.352 100.026 110.821C100.026 110.609 99.8918 110.253 99.51 110.253C99.1281 110.253 99.1529 111.799 99.1529 111.871C99.1529 112.565 99.5348 113.516 100.199 113.516C100.864 113.516 101.836 112.425 102.545 111.781C102.545 111.763 102.545 111.731 102.535 111.731ZM99.8273 109.491C99.8372 109.518 99.9017 109.531 99.9563 109.549C100.145 109.459 100.219 109.383 100.219 109.243C100.219 109.112 100.11 108.837 99.9166 108.837C99.7629 108.837 99.7281 108.923 99.7281 108.995C99.7281 109.112 99.7827 109.333 99.8273 109.491ZM108.971 112.037C108.48 112.763 107.955 113.475 107.429 114.178C107.31 114.341 106.983 114.566 106.854 114.566C106.492 114.566 106.492 113.953 106.492 113.633C106.492 113.128 106.646 112.493 106.72 112.01C106.745 111.65 106.775 111.325 106.775 110.996C106.775 110.334 106.626 109.716 105.981 109.716C105.426 109.716 104.727 110.325 104.389 110.83C104.037 111.343 103.72 111.898 103.328 112.385C103.298 112.344 103.264 112.317 103.254 112.267C103.165 111.74 103.055 111.217 103.036 110.69C103.011 110.144 102.708 109.788 102.208 109.549C102.153 109.518 102.064 109.5 101.999 109.5C101.855 109.5 101.781 109.617 101.781 109.739C101.781 109.757 101.781 109.779 101.791 109.788C101.989 110.275 101.999 110.78 102.054 111.285C102.108 112.087 102.5 113.565 103.036 113.565C103.373 113.565 103.482 113.286 103.527 113.079C103.665 112.326 104.171 111.713 104.627 111.104C104.91 110.739 105.5 110.063 105.981 110.063C106.135 110.063 106.189 110.194 106.189 110.334C106.189 110.51 106.11 110.672 106.08 110.839C105.927 111.573 105.728 112.294 105.728 113.038C105.728 113.854 105.763 115.035 106.884 115.035C107.335 115.035 107.464 114.764 107.856 114.169C108.247 113.583 108.619 112.961 109.026 112.376C109.065 112.317 109.373 111.862 109.408 111.83C109.383 111.79 109.373 111.781 109.338 111.781C109.318 111.781 109.299 111.79 109.274 111.79C109.264 111.79 109.244 111.781 109.229 111.749C109.219 111.799 108.991 111.997 108.971 112.037ZM114.882 111.74C114.193 112.227 113.672 112.294 112.963 112.772C112.899 112.813 112.829 112.831 112.775 112.831C112.68 112.831 112.601 112.763 112.601 112.641C112.601 112.556 112.611 112.475 112.611 112.394C112.611 111.772 112.219 111.235 112.12 110.631C112.046 110.203 111.728 110.027 111.228 110.027C110.499 110.027 109.908 110.334 109.517 110.857C109.328 111.104 108.827 111.911 108.827 112.466C108.827 112.804 109.08 113.07 109.363 113.07C109.735 113.07 110.717 112.344 111.347 111.938C111.391 111.92 111.426 111.911 111.456 111.911C111.699 111.911 111.589 112.831 111.684 113.2C111.709 113.299 111.728 113.399 111.728 113.484C111.728 113.822 111.545 114.111 111.292 114.39C110.811 114.913 110.365 115.458 109.953 116.026C109.244 116.995 108.644 117.897 108.644 119.208C108.644 119.903 109.189 120.466 109.899 120.466C110.008 120.466 110.117 120.457 110.226 120.416C112.175 119.781 112.7 118.762 112.7 116.175C112.7 115.44 112.68 114.706 112.68 113.98C112.68 113.061 113.474 112.772 114.391 112.317C115.036 111.997 115.011 111.641 114.882 111.74ZM111.589 118.393C111.347 119.087 110.856 119.632 110.082 119.912C109.928 119.97 109.789 120.002 109.665 120.002C109.229 120.002 109.036 119.664 109.036 119.06C109.036 118.861 109.065 118.672 109.135 118.492C109.68 117.077 110.499 115.778 111.49 114.575C111.535 114.525 111.644 114.516 111.728 114.489C111.793 114.674 111.808 114.836 111.808 115.044C111.808 115.269 111.808 115.508 111.808 115.747C111.847 116.044 111.872 116.351 111.872 116.648C111.872 117.234 111.783 117.82 111.589 118.393ZM111.738 111.285C110.999 111.74 110.236 112.186 109.472 112.623C109.462 112.632 109.437 112.632 109.427 112.632C109.363 112.632 109.254 112.592 109.254 112.466C109.472 111.564 110.127 110.253 111.347 110.253C111.664 110.253 111.892 110.482 111.892 110.956C111.892 111.077 111.828 111.235 111.738 111.285ZM121.72 111.88C121.081 112.466 120.838 112.763 120.183 113.349C119.99 113.516 119.672 113.705 119.4 113.705C118.666 113.705 118.646 112.605 118.646 112.227C118.646 111.722 118.656 111.195 118.72 110.681C118.8 110.014 118.829 110.014 119.553 109.937C119.771 109.897 120 109.897 120.228 109.897C120.381 109.897 120.52 109.897 120.674 109.897C120.862 109.897 120.892 109.888 121.036 109.779C120.981 109.739 120.937 109.658 120.882 109.658C120.347 109.631 119.801 109.608 119.256 109.59C119.038 109.581 118.953 109.54 118.953 109.383C118.953 109.171 119.072 108.103 119.191 108.103C119.256 107.724 119.29 107.336 119.375 106.962C119.39 106.89 119.4 106.823 119.4 106.755C119.4 106.476 119.127 105.998 118.69 105.998C118.408 105.998 118.338 106.557 118.274 106.953C118.155 107.715 118.011 108.477 117.892 109.234C117.783 109.847 117.738 109.599 116.791 109.797C116.747 109.815 116.702 109.865 116.702 109.915C116.702 110.275 117.728 109.964 117.728 110.532C117.728 110.649 117.684 110.83 117.684 111.019C117.684 112.096 118.135 114.003 119.4 114.003C120.337 114.003 121.363 112.641 121.938 111.979C121.983 111.911 121.864 111.713 121.72 111.88ZM127.755 111.632C127.7 111.623 127.492 112.245 127.462 112.326C127.319 112.583 126.272 114.895 125.608 114.895C125.3 114.895 125.127 114.241 125.127 113.872C125.127 113.376 125.355 112.763 125.474 112.236C125.553 111.88 125.638 111.474 125.638 111.118C125.638 110.757 125.355 110.55 124.735 110.55C124.001 110.55 123.272 111.276 122.92 111.938C122.89 112.019 122.811 112.069 122.747 112.137C122.39 111.772 122.29 111.424 122.29 111.046C122.29 110.798 122.365 110.55 122.563 110.311C122.757 110.077 122.881 109.779 123.019 109.491C123.302 108.914 123.555 108.328 123.555 107.634C123.555 107.575 123.555 107.526 123.555 107.467C123.555 107.427 123.565 107.35 123.565 107.269C123.565 106.773 123.238 106.435 122.791 106.435C122.127 106.435 121.557 107.21 121.428 107.895C121.338 108.342 121.299 108.774 121.299 109.22C121.299 109.838 121.492 110.41 121.547 111.019C121.919 113.07 122.648 113.011 122.608 113.011C122.881 113.011 123.262 112.087 123.491 111.672C123.674 111.343 123.957 111.118 124.284 110.92C124.373 110.87 124.517 110.87 124.611 110.839C124.636 110.906 124.681 110.987 124.681 111.068C124.681 111.077 124.681 111.077 124.681 111.086C124.591 111.6 124.527 112.128 124.418 112.641C124.363 112.871 124.329 113.11 124.329 113.336C124.329 114.07 124.735 115.193 125.608 115.193C126.565 115.193 127.472 112.88 127.646 112.376C127.666 112.308 127.819 111.947 127.819 111.749C127.819 111.69 127.8 111.641 127.755 111.632ZM122.038 110.104C122.008 109.716 121.983 109.32 121.963 108.995C121.973 108.896 121.973 108.788 121.973 108.689C121.973 108.526 121.963 108.378 121.963 108.229C121.963 107.656 122.147 107.111 122.618 106.764C122.692 106.705 122.791 106.674 122.866 106.674C123.153 106.674 123.282 107.071 123.282 107.368C123.248 108.044 123.138 108.707 122.781 109.311C122.608 109.608 122.335 110.235 122.157 110.235C122.117 110.235 122.048 110.153 122.038 110.104ZM130.463 111.862C130.274 112.096 129.282 113.399 128.519 113.399C128.018 113.399 127.929 112.772 127.929 112.308C127.929 112.019 127.899 111.731 128.291 111.641C128.935 111.501 129.793 110.807 129.793 110.482C129.793 110.045 129.317 109.779 129.02 109.779C127.636 109.779 127.329 111.294 127.274 111.961C127.274 113.002 127.8 113.647 128.484 113.647C129.129 113.647 130.353 112.493 130.656 111.929C130.765 111.722 130.591 111.722 130.463 111.862ZM128.856 110.194C128.945 110.113 129.029 110.063 129.129 110.063C129.337 110.063 129.466 110.212 129.466 110.433C129.466 110.721 128.826 111.145 128.4 111.303C128.39 111.316 128.365 111.316 128.345 111.316C128.281 111.316 128.266 111.285 128.266 111.235C128.266 110.92 128.608 110.451 128.856 110.194ZM136.735 107.814C136.765 107.733 136.82 107.237 136.82 106.674C136.82 106.169 136.775 105.615 136.626 105.254C136.572 105.105 136.473 104.948 136.363 104.821C136.165 104.601 135.902 104.501 135.654 104.501C135.382 104.501 135.109 104.623 134.901 104.848C134.355 105.443 134.082 106.16 133.939 106.913C133.72 108.094 133.517 109.284 133.492 110.491C133.492 110.708 133.448 110.73 133.19 110.699C132.957 110.681 132.719 110.64 132.501 110.681C132.292 110.699 132.238 110.906 132.347 111.077C132.535 111.433 132.882 111.623 133.244 111.781C133.448 111.88 133.502 111.988 133.517 112.168C133.547 112.732 133.527 115.927 133.899 116.779C134.063 117.176 134.335 117.491 134.782 117.622C135.119 117.748 135.481 117.315 135.6 116.977C135.699 116.68 135.729 116.4 135.729 116.112C135.729 115.878 135.709 115.639 135.674 115.391C135.446 113.98 135.292 113.128 134.792 112.137C134.702 112.019 134.965 112.11 135.119 112.096C135.62 112.019 136.101 111.947 136.592 111.889C136.646 111.88 136.765 111.83 136.745 111.772C136.745 111.713 136.626 111.713 136.582 111.713C136.066 111.749 135.555 111.812 135.03 111.83C134.638 111.862 134.39 111.672 134.345 111.325C134.291 111.077 134.281 110.807 134.281 110.559C134.291 109.392 134.499 108.242 134.692 107.102C134.811 106.494 134.965 105.912 135.248 105.367C135.327 105.205 135.62 104.848 135.848 104.93C136.463 105.155 136.582 106.097 136.582 106.832C136.582 107.3 136.527 107.674 136.527 107.747C136.527 107.783 136.582 107.832 136.611 107.846C136.636 107.855 136.72 107.832 136.735 107.814ZM134.41 112.159C134.573 112.218 135.382 114.773 135.382 116.175C135.382 116.707 135.273 117.068 134.955 117.068C134.256 117.068 134.335 113.723 134.311 112.425C134.311 112.376 134.32 112.308 134.345 112.236C134.355 112.209 134.375 112.146 134.41 112.159ZM132.828 110.848C133.299 110.857 133.537 111.068 133.482 111.402C133.463 111.501 133.373 111.551 133.284 111.483C133.081 111.352 132.892 111.186 132.709 111.028C132.699 111.019 132.709 110.938 132.709 110.92C132.729 110.879 132.793 110.857 132.828 110.848ZM140.802 113.773C140.663 113.953 140.519 114.219 140.281 114.219C140.018 114.219 139.909 113.953 139.909 113.615C139.909 112.831 140.236 112.01 140.236 111.253C140.236 111.019 140.117 110.473 139.626 110.473C139.23 110.473 138.937 110.978 138.684 111.226C138.248 111.663 137.365 112.682 137.092 112.682C136.919 112.682 136.83 112.493 136.83 112.344C136.83 111.69 137.226 111.019 137.226 110.392C137.226 110.275 137.117 110.176 137.028 110.176C136.954 110.176 136.864 110.212 136.82 110.253C136.711 110.392 136.274 112.236 136.274 112.623C136.274 112.952 136.611 113.218 136.864 113.218C137.201 113.218 137.539 112.871 137.782 112.623C138.228 112.177 138.828 111.375 139.165 111.253C139.091 111.79 138.992 112.267 138.992 112.772C138.992 113.417 139.23 114.746 140.083 114.746C140.519 114.746 140.727 114.399 140.945 114.093C141.456 113.399 141.972 112.714 142.492 112.019C142.572 111.929 142.626 111.871 142.666 111.83C142.656 111.713 142.646 111.591 142.626 111.465C142.036 112.245 141.426 113.011 140.802 113.773ZM146.266 111.88C145.626 112.466 145.383 112.763 144.729 113.349C144.535 113.516 144.218 113.705 143.945 113.705C143.211 113.705 143.192 112.605 143.192 112.227C143.192 111.722 143.202 111.195 143.266 110.681C143.345 110.014 143.375 110.014 144.099 109.937C144.317 109.897 144.545 109.897 144.773 109.897C144.927 109.897 145.066 109.897 145.22 109.897C145.408 109.897 145.438 109.888 145.582 109.779C145.527 109.739 145.483 109.658 145.428 109.658C144.892 109.631 144.347 109.608 143.802 109.59C143.583 109.581 143.499 109.54 143.499 109.383C143.499 109.171 143.618 108.103 143.737 108.103C143.802 107.724 143.836 107.336 143.921 106.962C143.935 106.89 143.945 106.823 143.945 106.755C143.945 106.476 143.673 105.998 143.236 105.998C142.954 105.998 142.884 106.557 142.82 106.953C142.701 107.715 142.557 108.477 142.438 109.234C142.329 109.847 142.284 109.599 141.337 109.797C141.292 109.815 141.248 109.865 141.248 109.915C141.248 110.275 142.274 109.964 142.274 110.532C142.274 110.649 142.23 110.83 142.23 111.019C142.23 112.096 142.681 114.003 143.945 114.003C144.883 114.003 145.909 112.641 146.484 111.979C146.529 111.911 146.41 111.713 146.266 111.88ZM150.59 113.773C150.446 113.953 150.303 114.219 150.064 114.219C149.802 114.219 149.693 113.953 149.693 113.615C149.693 112.831 150.02 112.01 150.02 111.253C150.02 111.019 149.901 110.473 149.41 110.473C149.018 110.473 148.721 110.978 148.473 111.226C148.036 111.663 147.154 112.682 146.881 112.682C146.702 112.682 146.618 112.493 146.618 112.344C146.618 111.69 147.01 111.019 147.01 110.392C147.01 110.275 146.901 110.176 146.812 110.176C146.737 110.176 146.648 110.212 146.608 110.253C146.499 110.392 146.063 112.236 146.063 112.623C146.063 112.952 146.4 113.218 146.648 113.218C146.99 113.218 147.327 112.871 147.565 112.623C148.012 112.177 148.612 111.375 148.954 111.253C148.874 111.79 148.775 112.267 148.775 112.772C148.775 113.417 149.018 114.746 149.866 114.746C150.302 114.746 150.511 114.399 150.729 114.093C151.245 113.399 151.755 112.714 152.281 112.019C152.355 111.929 152.41 111.871 152.455 111.83C152.445 111.713 152.43 111.591 152.41 111.465C151.82 112.245 151.21 113.011 150.59 113.773ZM157.428 111.74C157.428 111.731 157.284 111.632 157.245 111.632C157.275 111.632 155.4 113.994 154.909 113.994C154.557 113.994 154.354 113.498 154.354 112.988C154.354 112.763 154.393 112.524 154.493 112.276C154.666 111.83 154.775 111.343 154.919 110.879C154.939 110.83 154.939 110.78 154.939 110.73C154.939 110.203 154.121 110.113 153.684 110.045C152.881 109.928 153.412 109.59 153.03 108.964C152.936 108.806 152.772 108.725 152.618 108.725C152.291 108.725 152.018 109.121 152.018 109.419C152.018 109.68 152.182 109.928 152.509 110.104C152.747 110.244 152.827 110.284 152.827 110.401C152.827 110.64 152.43 111.452 152.028 111.947C151.974 112.046 152.157 112.11 152.212 112.069C152.757 111.582 152.975 110.293 153.372 110.302C153.754 110.311 154.056 110.473 154.056 110.622C154.056 110.672 154.046 110.739 154.027 110.821C153.828 111.393 153.456 112.195 153.456 112.705C153.456 113.367 154.091 114.327 154.974 114.327C155.202 114.327 155.375 114.251 155.539 114.061C155.975 113.534 157.428 111.92 157.428 111.74ZM152.911 109.748C152.881 109.806 152.836 109.906 152.802 109.906C152.484 109.879 152.41 109.649 152.41 109.482C152.41 109.32 152.519 109.036 152.673 109.036C152.836 109.036 152.911 109.509 152.936 109.599C152.921 109.707 152.921 109.73 152.911 109.748ZM159.957 111.862C159.774 112.096 158.782 113.399 158.018 113.399C157.517 113.399 157.428 112.772 157.428 112.308C157.428 112.019 157.394 111.731 157.79 111.641C158.43 111.501 159.293 110.807 159.293 110.482C159.293 110.045 158.812 109.779 158.519 109.779C157.136 109.779 156.828 111.294 156.774 111.961C156.774 113.002 157.299 113.647 157.984 113.647C158.628 113.647 159.848 112.493 160.156 111.929C160.265 111.722 160.091 111.722 159.957 111.862ZM158.356 110.194C158.445 110.113 158.529 110.063 158.628 110.063C158.837 110.063 158.965 110.212 158.965 110.433C158.965 110.721 158.321 111.145 157.899 111.303C157.884 111.316 157.865 111.316 157.845 111.316C157.775 111.316 157.765 111.285 157.765 111.235C157.765 110.92 158.103 110.451 158.356 110.194Z" fill="black"/>
<path d="M23.5243 98.0156C24.1591 98.0156 24.8334 97.9795 25.5475 97.7992V96.9699C23.7624 96.9699 23.088 96.5011 20.9061 94.0853L12.6944 84.9266V84.8545C16.8201 84.2776 19.6763 82.1141 19.6763 78.941C19.6763 75.8761 17.0581 73.6406 11.0283 73.6406C9.24312 73.6406 7.4183 73.8208 3.76865 73.8208H0V74.6502C3.13393 74.7223 3.76865 74.9386 3.76865 77.4266V94.1934C3.76865 96.6814 3.13393 96.8978 0.991751 96.9699V97.7992H10.8696V96.9699C7.77533 96.8978 7.14061 96.6814 7.14061 94.1934V77.4266C7.14061 75.2271 8.05302 74.9386 9.95718 74.9386C13.0118 74.9386 16.0267 75.6598 16.0267 79.1934C16.0267 82.655 13.0118 84.4218 7.93401 84.0252V85.1069C8.48939 85.143 8.72741 85.2872 9.4018 86.0444L17.5738 95.167C18.9226 96.6814 20.2317 98.0156 23.5243 98.0156ZM46.0569 94.1934L39.5907 76.6694C39.075 75.4074 38.599 74.2535 38.2419 72.9915H36.2981C35.9411 74.2535 35.4253 75.4074 34.9096 76.6694L27.888 94.1934C27.1343 96.0324 26.2616 96.8617 24.5954 96.9699V97.7992H32.8071V96.9699C29.4352 96.8617 29.0385 96.0324 29.7129 94.1934L31.5774 89.4338C32.0137 88.3882 32.4898 88.28 33.6402 88.28H38.837C39.3924 88.28 39.9874 88.2439 40.2651 87.9915L42.5263 94.1934C43.4387 96.6093 42.8833 96.8617 40.1858 96.9699V97.7992H49.6669V96.9699C47.6041 96.8617 47.009 96.7175 46.0569 94.1934ZM38.9163 86.9819H33.6005C33.1245 86.9819 32.7278 86.9819 32.4898 87.0901L36.2981 77.5348H36.3774L39.6304 86.2968C39.8684 86.8737 39.5907 86.9819 38.9163 86.9819ZM59.6637 98.0877H61.7663C62.0836 96.8257 62.3216 96.2487 62.8373 94.9507L69.9779 77.4266C70.692 75.6237 71.6838 74.7583 73.2309 74.6502V73.8208H65.0589V74.6502C68.3118 74.7583 68.7482 75.6237 68.0341 77.4266L61.6076 93.1838H61.5282L55.2207 77.4266C54.2686 75.0468 54.586 74.7583 57.2042 74.6502L57.2439 73.8208H48.1594V74.6502C49.9446 74.7583 50.5396 74.9386 51.5314 77.4266L58.672 94.9507C59.1877 96.2127 59.3464 96.8257 59.6637 98.0877ZM107.466 93.3641C107.03 92.7151 106.593 92.1021 106.157 91.5252C107.03 89.9386 107.585 88.1718 107.823 86.2968C108.022 84.8545 108.537 84.6382 111.949 84.566V83.7367H104.174V84.566C105.483 84.6382 106.435 84.8184 106.276 86.1526C106.157 87.5949 105.721 88.929 105.086 90.155C102.15 86.4771 99.6115 84.3858 97.628 82.8713C100.246 81.6454 102.19 80.0228 102.19 77.7511C102.19 74.8665 99.1751 73.28 96.5172 73.28C93.4626 73.28 90.3684 75.155 90.3684 78.2559C90.3684 80.6357 91.5585 81.9338 93.542 83.5925C89.8923 85.2872 86.322 87.5949 86.322 91.8497C86.322 95.6718 90.0113 98.3401 94.6527 98.3401C98.4214 98.3401 101.754 96.7896 104.134 94.2656C104.213 94.3377 104.253 94.4459 104.332 94.518C105.8 96.5733 108.061 98.0156 111.274 98.0156C111.87 98.0156 112.504 97.9795 113.179 97.7992V96.9699C111.274 96.9699 109.608 96.5011 107.466 93.3641ZM96.2792 74.5781C98.1437 74.5781 99.2941 75.768 99.2941 77.7872C99.2941 79.6261 98.3024 80.8882 96.5569 82.0781C94.494 80.5276 93.2643 79.554 93.2643 77.643C93.2643 75.7319 94.613 74.5781 96.2792 74.5781ZM95.6841 95.9603C92.3122 95.9603 89.6543 94.1213 89.6543 91.1285C89.6543 88.0276 91.9155 86.0444 94.5337 84.4218C96.7552 86.1886 99.7305 88.5684 103.102 92.8593C101.119 94.7704 98.5007 95.9603 95.6841 95.9603ZM133.807 98.3401C137.02 98.3401 139.639 96.7175 141.146 94.4459L140.511 93.8689C139.004 95.167 137.139 95.9603 135.275 95.9603C131.665 95.9603 129.007 93.2199 129.007 88.9651C129.007 85.4314 130.99 82.7271 134.481 82.7271C136.584 82.7271 139.162 83.7007 139.599 87.4146H140.511V82.691C138.964 81.7535 136.862 81.393 135.235 81.393C130.276 81.393 125.754 84.6382 125.754 90.3353C125.754 95.6718 129.642 98.3401 133.807 98.3401ZM153.483 81.393C149.358 81.393 144.439 84.3858 144.439 90.155C144.439 95.0588 148.366 98.3401 152.928 98.3401C157.093 98.3401 162.012 95.3473 162.012 89.5781C162.012 84.6742 158.045 81.393 153.483 81.393ZM153.602 96.8978C150.151 96.8978 147.811 93.4362 147.811 89.1093C147.811 84.8184 149.754 82.8353 152.809 82.8353C156.3 82.8353 158.64 86.2247 158.64 90.6237C158.64 94.9146 156.697 96.8978 153.602 96.8978ZM167.685 98.3401C168.836 98.3401 169.748 97.5108 169.748 96.4651C169.748 95.4555 168.836 94.6261 167.685 94.6261C166.535 94.6261 165.622 95.4555 165.622 96.4651C165.622 97.5108 166.535 98.3401 167.685 98.3401Z" fill="black"/>
</svg>
