<svg width="118" height="145" viewBox="0 0 118 145" fill="none" xmlns="http://www.w3.org/2000/svg">
<path fill-rule="evenodd" clip-rule="evenodd" d="M85.4611 1.36093C82.488 3.44565 80.8672 6.5366 80.8624 10.1347C80.8541 15.6473 83.9659 19.7784 88.9993 20.9372C91.5434 21.5233 90.819 19.5196 97.0925 43.3214L100.694 56.9841L98.0249 59.548L95.3567 62.1111L77.0157 55.9351L58.6748 49.7591V46.7411C58.6748 35.2833 50.56 26.5146 39.9581 26.5146C25.6668 26.5146 16.9726 42.038 23.7965 55.3712C25.6668 59.0253 30.8874 64.0956 32.7792 64.0956C34.0679 64.0956 34.0082 64.7642 31.6395 76.8773C30.4957 82.726 29.5599 87.7167 29.5599 87.9666C29.5599 88.2172 28.4833 88.4222 27.1676 88.4222C20.2092 88.4222 12.5152 91.766 7.70573 96.8805C-5.07777 110.474 -1.45574 133.119 14.8687 141.665C19.1472 143.905 19.979 144.078 26.4259 144.078C32.7092 144.078 33.7691 143.871 37.5228 141.911C48.7958 136.026 54.7248 122.521 51.6685 109.692C51.1513 107.522 50.7222 105.498 50.7153 105.196C50.7084 104.893 61.0906 98.3629 73.7875 90.6845L96.8714 76.7225L99.3323 78.4984C102.57 80.8345 105.98 81.4515 109.485 80.3347C115.411 78.4468 119.144 71.6766 117.606 65.6031C116.258 60.2814 111.639 55.9867 107.261 55.9867C105.438 55.9867 105.082 55.6358 104.457 53.2223C104.063 51.7023 101.914 43.5897 99.681 35.1948L95.6215 19.931L97.609 17.906C102.408 13.0163 101.261 4.28234 95.3948 1.05648C92.6227 -0.467984 87.8617 -0.322024 85.4611 1.36093ZM55.2545 57.0136C52.5128 61.7315 46.0985 65.5699 40.9577 65.5699C38.2951 65.5699 38.582 64.8615 36.1801 77.3646C35.2061 82.4327 34.2654 87.2501 34.0907 88.0705C33.8329 89.2758 34.4609 89.8987 37.3627 91.3141C39.3376 92.2776 42.5535 94.6748 44.509 96.6416C46.4639 98.6076 48.2433 100.217 48.4631 100.217C48.7917 100.217 93.8421 73.1731 94.6171 72.5111C94.7502 72.3968 94.6545 71.0375 94.4036 69.4894L93.9481 66.6757L75.7915 60.5859C65.8051 57.2362 57.4263 54.4998 57.1719 54.5042C56.9168 54.5087 56.0537 55.638 55.2545 57.0136Z" fill="black"/>
</svg>
