<svg viewBox="0 0 180 207" fill="none" xmlns="http://www.w3.org/2000/svg">
<path id="_1" d="M172.346 75.3893C166.951 82.8426 163.6 93.5263 163.6 103.272C163.6 103.273 163.6 103.275 163.6 103.276L163.6 103.689C163.6 103.691 163.6 103.691 163.6 103.693C163.6 113.439 166.951 124.124 172.346 131.577C173.973 133.824 176.623 133.841 178.265 131.614C179.091 130.494 179.504 129.019 179.504 127.544C179.504 126.087 179.101 124.629 178.292 123.513C174.452 118.207 171.971 110.428 171.971 103.693C171.971 103.692 171.971 103.691 171.971 103.69L171.971 103.275C171.971 103.274 171.971 103.274 171.971 103.273C171.971 96.5386 174.452 88.7589 178.292 83.4536C179.919 81.2062 179.907 77.5783 178.265 75.3517C176.623 73.1246 173.973 73.1415 172.346 75.3893Z" fill="#C81414"/>
<path id="_2" d="M162.454 62.5042C152.191 73.848 146.539 88.5403 146.539 103.875C146.54 119.213 152.192 133.905 162.454 145.246C164.098 147.062 166.753 147.051 168.384 145.22C170.015 143.389 170.004 140.433 168.361 138.616C159.697 129.043 154.925 116.705 154.925 103.875C154.925 91.0482 159.696 78.7101 168.361 69.133C169.187 68.2201 169.6 67.0196 169.6 65.8186C169.6 64.6297 169.195 63.4399 168.383 62.5289C166.752 60.6987 164.097 60.6875 162.454 62.5042Z" fill="#C83414"/>
<path id="_3" d="M145.409 52.1537C130.46 65.526 122.227 83.6339 122.227 103.144C122.227 122.652 130.46 140.76 145.409 154.132C147.122 155.664 149.805 155.574 151.401 153.93C152.997 152.286 152.903 149.711 151.19 148.179C137.981 136.363 130.706 120.369 130.706 103.142C130.706 85.9167 137.981 69.9228 151.19 58.1069C152.086 57.3055 152.539 56.2189 152.539 55.1295C152.539 54.1361 152.162 53.1402 151.401 52.3561C149.805 50.7123 147.122 50.6216 145.409 52.1537Z" fill="#C85514"/>
<path id="_4" d="M121.03 43.7312C105.94 59.3151 97.63 80.4177 97.6298 103.154C97.63 125.888 105.94 146.991 121.03 162.575C122.759 164.36 125.467 164.255 127.078 162.339C128.689 160.423 128.594 157.423 126.865 155.637C113.532 141.867 106.189 123.228 106.188 103.152C106.189 83.078 113.532 64.4391 126.865 50.6689C127.77 49.735 128.227 48.4687 128.227 47.1991C128.227 46.0414 127.847 44.8809 127.078 43.9671C125.467 42.0515 122.759 41.9457 121.03 43.7312Z" fill="#C88014"/>
<path id="_5" d="M96.4328 32.5605C81.3433 51.221 73.0328 76.4897 73.0326 103.715C73.0328 130.938 81.3433 156.206 96.4328 174.867C98.1617 177.005 100.87 176.879 102.481 174.585C104.092 172.291 103.997 168.698 102.268 166.56C88.9346 150.071 81.5915 127.752 81.5913 103.713C81.5915 79.6753 88.9346 57.3565 102.268 40.8678C103.172 39.7496 103.63 38.2333 103.63 36.713C103.63 35.3267 103.249 33.9371 102.481 32.8429C100.869 30.5491 98.1617 30.4224 96.4328 32.5605Z" fill="#C89514"/>
<path id="_6" d="M71.8357 22.8937C56.7462 44.0289 48.4357 72.6487 48.4355 103.484C48.4357 134.317 56.7462 162.937 71.8357 184.073C73.5646 186.494 76.2725 186.351 77.8839 183.753C79.4951 181.154 79.4001 177.085 77.671 174.664C64.3375 155.988 56.9944 130.71 56.9941 103.482C56.9944 76.2568 64.3375 50.9782 77.671 32.3028C78.5752 31.0362 79.0327 29.3189 79.0327 27.597C79.0327 26.0269 78.6523 24.4529 77.8839 23.2137C76.2723 20.6156 73.5646 20.4722 71.8357 22.8937Z" fill="#C4C814"/>
<path id="_7" d="M47.3278 12.924C32.4253 36.7766 24.2179 69.0761 24.2177 103.876C24.2179 138.673 32.4253 170.973 47.3278 194.826C49.0352 197.558 51.7096 197.397 53.301 194.465C54.8921 191.532 54.7983 186.94 53.0907 184.207C39.9225 163.131 32.6705 134.602 32.6702 103.874C32.6705 73.148 39.9225 44.6193 53.0907 23.5428C53.9837 22.1134 54.4355 20.1752 54.4355 18.2319C54.4355 16.46 54.0598 14.6836 53.301 13.2851C51.7094 10.3529 49.0352 10.1911 47.3278 12.924Z" fill="#99C814"/>
<path id="_8" d="M23.11 2.17036C8.20756 28.7403 0.000150273 64.7195 -6.10387e-05 103.484C0.000150276 142.246 8.20756 178.225 23.11 204.795C24.8174 207.839 27.4918 207.659 29.0832 204.393C30.6744 201.126 30.5806 196.011 28.8729 192.967C15.7047 169.489 8.45268 137.71 8.45247 103.481C8.45268 69.2554 15.7047 37.4765 28.8729 13.9989C29.7659 12.4066 30.2177 10.2477 30.2177 8.083C30.2177 6.10915 29.842 4.13046 29.0832 2.57256C27.4916 -0.693608 24.8174 -0.873891 23.11 2.17036Z" fill="#63C814"/>
</svg>
