<svg width="228" height="219" viewBox="0 0 228 219" fill="none" xmlns="http://www.w3.org/2000/svg">
<path fill-rule="evenodd" clip-rule="evenodd" d="M163.655 2.39923C157.979 5.58135 154.902 10.27 154.922 15.7082C154.952 24.0399 160.945 30.2508 170.593 31.9492C175.469 32.8081 174.066 29.7875 186.276 65.6949L193.286 86.3065L188.197 90.2096L183.109 94.1116L147.937 84.9705L112.766 75.8294L112.741 71.2681C112.646 53.951 97.0345 40.7837 76.7335 40.8954C49.3682 41.046 32.8492 64.5992 46.0269 84.6788C49.6385 90.1819 59.6772 97.79 63.2996 97.7701C65.7673 97.7565 65.6587 98.7677 61.2237 117.1C59.0822 125.952 57.3317 133.505 57.3338 133.882C57.3358 134.261 55.2761 134.582 52.7568 134.596C39.4325 134.669 24.7276 139.804 15.5608 147.585C-8.80446 168.264 -1.68059 202.451 29.649 215.196C37.8603 218.535 39.4546 218.79 51.7992 218.722C63.8307 218.655 65.8585 218.331 73.03 215.329C94.567 206.315 105.808 185.843 99.8487 166.485C98.8404 163.211 98.0019 160.156 97.9861 159.699C97.9703 159.242 117.796 149.263 142.045 137.524L186.131 116.179L190.858 118.837C197.076 122.334 203.612 123.23 210.314 121.505C221.646 118.59 228.737 108.318 225.741 99.1549C223.117 91.1261 214.235 84.6837 205.852 84.7299C202.362 84.7491 201.678 84.2225 200.461 80.5813C199.694 78.2881 195.51 66.0496 191.165 53.3853L183.265 30.3586L187.054 27.2771C196.203 19.8364 193.933 6.64813 182.674 1.83444C177.353 -0.440405 168.238 -0.169648 163.655 2.39923ZM106.277 86.8297C101.067 93.9891 88.8163 99.8581 78.9724 99.9122C73.8739 99.9403 74.4175 98.8666 69.9221 117.789C68.0993 125.459 66.3381 132.75 66.0104 133.992C65.5266 135.816 66.7344 136.751 72.3026 138.859C76.0924 140.295 82.27 143.884 86.0309 146.836C89.7905 149.787 93.2113 152.2 93.6321 152.198C94.2612 152.194 180.3 110.846 181.779 109.838C182.033 109.664 181.838 107.61 181.345 105.273L180.449 101.025L145.632 92.0125C126.482 87.0551 110.415 83.0076 109.928 83.017C109.439 83.0264 107.796 84.7423 106.277 86.8297Z" fill="url(#paint0_linear)"/>
<defs>
<linearGradient id="paint0_linear" x1="112.93" y1="0.621359" x2="114.128" y2="218.379" gradientUnits="userSpaceOnUse">
<stop stop-color="#E7CF92"/>
<stop offset="0.21875" stop-color="#CDC289"/>
<stop offset="0.34375" stop-color="#99CA73"/>
<stop offset="0.494792" stop-color="#ACCF72"/>
<stop offset="0.604167" stop-color="#B5A467" stop-opacity="0.87"/>
<stop offset="0.65625" stop-color="#AD8B6E"/>
<stop offset="0.703125" stop-color="#B47F6C"/>
<stop offset="0.869792" stop-color="#C06262"/>
</linearGradient>
</defs>
</svg>
