<svg width="160" height="162" viewBox="0 0 160 162" fill="none" xmlns="http://www.w3.org/2000/svg">
<path fill-rule="evenodd" clip-rule="evenodd" d="M115.245 1.52701C111.235 3.86611 109.05 7.33425 109.043 11.3714C109.032 17.5567 113.228 22.1919 120.016 23.4921C123.447 24.1497 122.47 21.9016 130.93 48.6078L135.786 63.9377L132.187 66.8144L128.589 69.6904L103.856 62.7607L79.1232 55.8311V52.4448C79.1232 39.5888 68.1804 29.7502 53.8836 29.7502C34.6118 29.7502 22.8876 47.1677 32.0897 62.1279C34.6118 66.228 41.6518 71.917 44.2029 71.917C45.9406 71.917 45.8603 72.6672 42.666 86.2585C41.1236 92.8209 39.8617 98.4205 39.8617 98.7009C39.8617 98.9821 38.4099 99.2121 36.6357 99.2121C27.2522 99.2121 16.8768 102.964 10.3912 108.703C-6.84739 123.955 -1.96308 149.363 20.0505 158.952C25.8201 161.465 26.9418 161.66 35.6354 161.66C44.1084 161.66 45.5377 161.428 50.5997 159.228C65.8014 152.624 73.7967 137.472 69.6752 123.078C68.9778 120.643 68.3992 118.372 68.3898 118.032C68.3805 117.693 82.3809 110.366 99.5027 101.751L130.631 86.0848L133.95 88.0773C138.316 90.6985 142.915 91.3908 147.641 90.1377C155.633 88.0194 160.667 80.4231 158.592 73.6084C156.775 67.6374 150.545 62.8186 144.641 62.8186C142.184 62.8186 141.704 62.4249 140.861 59.7169C140.33 58.0113 137.431 48.9088 134.42 39.4895L128.946 22.3631L131.626 20.091C138.098 14.6047 136.551 4.8049 128.64 1.1854C124.902 -0.525091 118.482 -0.36132 115.245 1.52701ZM74.5109 63.9708C70.8138 69.2644 62.1641 73.5712 55.2316 73.5712C51.641 73.5712 52.028 72.7764 48.789 86.8052C47.4756 92.4917 46.2071 97.897 45.9715 98.8176C45.6237 100.17 46.4707 100.869 50.3837 102.457C53.047 103.538 57.3835 106.228 60.0206 108.435C62.6567 110.64 65.0563 112.446 65.3527 112.446C65.7957 112.446 126.546 82.1022 127.592 81.3594C127.771 81.2312 127.642 79.706 127.304 77.969L126.689 74.8119L102.205 67.979C88.7385 64.2206 77.4396 61.1503 77.0965 61.1553C76.7525 61.1602 75.5887 62.4274 74.5109 63.9708Z" fill="url(#paint0_linear)"/>
<defs>
<linearGradient id="paint0_linear" x1="79.53" y1="0" x2="79.53" y2="161.66" gradientUnits="userSpaceOnUse">
<stop offset="0.265625" stop-color="#58C7CE"/>
<stop offset="0.453125" stop-color="#4FFFAA" stop-opacity="0.995313"/>
<stop offset="0.833333" stop-color="#2362C0" stop-opacity="0.99"/>
</linearGradient>
</defs>
</svg>
