<svg xmlns="http://www.w3.org/2000/svg" viewBox="0 0 512 512">
  <path d="M508.869,3.131c-4.16-4.16-10.923-4.16-15.083,0L3.12,493.797c-4.16,4.16-4.16,10.923,0,15.083c2.091,2.069,4.821,3.115,7.552,3.115c2.731,0,5.461-1.045,7.531-3.115L508.869,18.213C513.029,14.053,513.029,7.291,508.869,3.131z"/>
  <path d="M352.005,106.661H53.339c-29.419,0-53.333,23.936-53.333,53.333v192c0,29.397,23.915,53.333,53.333,53.333h21.333c5.888,0,10.667-4.779,10.667-10.667s-4.779-10.667-10.667-10.667H53.339c-17.643,0-32-14.357-32-32v-192c0-17.643,14.357-32,32-32h298.667c5.888,0,10.667-4.779,10.667-10.667S357.893,106.661,352.005,106.661z"/>
  <path d="M507.312,129.829c-2.944-1.963-6.677-2.389-9.941-1.067l-92.032,36.821v-5.589c0-5.888-4.779-10.667-10.667-10.667s-10.667,4.779-10.667,10.667v21.333c0,3.541,1.749,6.848,4.693,8.832c2.923,1.963,6.677,2.368,9.941,1.067l92.032-36.821v203.179l-92.032-36.821c-3.264-1.323-7.019-0.917-9.941,1.067c-2.944,1.984-4.693,5.291-4.693,8.832v21.333c0,17.643-14.357,32-32,32h-192c-5.888,0-10.667,4.779-10.667,10.667s4.779,10.667,10.667,10.667h192c29.419,0,53.333-23.936,53.333-53.333v-5.589l92.032,36.821c3.285,1.301,7.019,0.917,9.941-1.067c2.944-1.984,4.693-5.291,4.693-8.832V138.661C512.005,135.12,510.256,131.813,507.312,129.829z"/>
</svg>